<svg width="32" height="32" viewBox="0 0 32 32" fill="none" xmlns="http://www.w3.org/2000/svg">
<path d="M22.2275 2.61479C23.9599 2.61997 25.6198 3.31045 26.8448 4.53545C28.0698 5.76045 28.7603 7.42042 28.7655 9.15282V22.2275C28.7603 23.9599 28.0698 25.6198 26.8448 26.8448C25.6198 28.0698 23.9599 28.7603 22.2275 28.7655H9.15282C7.42042 28.7603 5.76045 28.0698 4.53545 26.8448C3.31045 25.6198 2.61997 23.9599 2.61479 22.2275V9.15282C2.61997 7.42042 3.31045 5.76045 4.53545 4.53545C5.76045 3.31045 7.42042 2.61997 9.15282 2.61479H22.2275ZM22.2275 0H9.15282C4.11866 0 0 4.11866 0 9.15282V22.2275C0 27.2616 4.11866 31.3803 9.15282 31.3803H22.2275C27.2616 31.3803 31.3803 27.2616 31.3803 22.2275V9.15282C31.3803 4.11866 27.2616 0 22.2275 0Z" fill="white"/>
<path d="M24.1889 9.15301C23.801 9.15301 23.4218 9.03798 23.0993 8.82247C22.7767 8.60697 22.5254 8.30066 22.3769 7.94228C22.2285 7.58391 22.1896 7.18956 22.2653 6.80911C22.341 6.42866 22.5278 6.0792 22.8021 5.80491C23.0764 5.53062 23.4258 5.34383 23.8063 5.26815C24.1867 5.19248 24.5811 5.23132 24.9394 5.37976C25.2978 5.52821 25.6041 5.77959 25.8196 6.10212C26.0351 6.42464 26.1502 6.80384 26.1502 7.19174C26.1507 7.44945 26.1004 7.70474 26.002 7.94294C25.9036 8.18114 25.7592 8.39757 25.577 8.5798C25.3947 8.76203 25.1783 8.90648 24.9401 9.00484C24.7019 9.10321 24.4466 9.15356 24.1889 9.15301ZM15.6903 10.4601C16.7247 10.4601 17.736 10.7668 18.5961 11.3415C19.4562 11.9162 20.1266 12.7331 20.5224 13.6888C20.9183 14.6445 21.0219 15.6961 20.8201 16.7107C20.6183 17.7253 20.1201 18.6572 19.3887 19.3887C18.6572 20.1202 17.7252 20.6183 16.7107 20.8201C15.6961 21.0219 14.6445 20.9184 13.6888 20.5225C12.733 20.1266 11.9162 19.4562 11.3415 18.5961C10.7668 17.736 10.46 16.7248 10.46 15.6903C10.4615 14.3036 11.013 12.9742 11.9936 11.9936C12.9741 11.0131 14.3036 10.4615 15.6903 10.4601ZM15.6903 7.84526C14.1387 7.84526 12.6219 8.30537 11.3318 9.16739C10.0417 10.0294 9.03616 11.2547 8.44239 12.6882C7.84861 14.1217 7.69326 15.699 7.99596 17.2208C8.29866 18.7426 9.04583 20.1405 10.143 21.2376C11.2401 22.3348 12.638 23.082 14.1598 23.3847C15.6816 23.6874 17.259 23.532 18.6925 22.9382C20.126 22.3445 21.3512 21.3389 22.2132 20.0488C23.0753 18.7587 23.5354 17.2419 23.5354 15.6903C23.5354 13.6097 22.7088 11.6143 21.2376 10.143C19.7664 8.67179 17.7709 7.84526 15.6903 7.84526Z" fill="white"/>
</svg>
