<svg width="12" height="12" viewBox="0 0 12 12" fill="none" xmlns="http://www.w3.org/2000/svg">
<path d="M11.0403 0H1.02536C0.478124 0 0 0.39375 0 0.934554V10.9717C0 11.5154 0.478124 12 1.02536 12H11.0373C11.5875 12 12 11.5122 12 10.9717V0.934554C12.0032 0.39375 11.5875 0 11.0403 0ZM3.71973 10.0026H2.00062V4.6575H3.71973V10.0026ZM2.91964 3.84482H2.90732C2.35714 3.84482 2.00089 3.43527 2.00089 2.92259C2.00089 2.40054 2.36651 2.00063 2.92901 2.00063C3.49151 2.00063 3.83571 2.39759 3.84803 2.92259C3.84776 3.43527 3.49151 3.84482 2.91964 3.84482ZM10.0026 10.0026H8.28347V7.08C8.28347 6.37982 8.03329 5.90143 7.41133 5.90143C6.93615 5.90143 6.6549 6.22286 6.52981 6.53598C6.48294 6.64848 6.47035 6.8017 6.47035 6.95812V10.0026H4.75124V4.6575H6.47035V5.40134C6.72052 5.04509 7.11133 4.53241 8.0207 4.53241C9.14918 4.53241 10.0028 5.27625 10.0028 6.87991L10.0026 10.0026Z" fill="#ffffff"/>
</svg>
