<svg width="13" height="10" viewBox="0 0 13 10" fill="none" xmlns="http://www.w3.org/2000/svg">
<path d="M12.5 1.1849C12.0311 1.38863 11.535 1.52286 11.0273 1.58333C11.5608 1.27093 11.962 0.774629 12.1557 0.187504C11.6513 0.482449 11.1004 0.689396 10.5265 0.799481C10.2849 0.546234 9.99427 0.34477 9.67235 0.207333C9.35042 0.0698963 9.00391 -0.000642531 8.65388 4.40999e-06C7.2367 4.40999e-06 6.08983 1.13021 6.08983 2.52343C6.08882 2.71723 6.11103 2.91044 6.15597 3.09895C5.13975 3.05131 4.14466 2.79207 3.23436 2.33782C2.32407 1.88357 1.51861 1.24431 0.869529 0.46094C0.641814 0.844825 0.521387 1.28282 0.520832 1.72917C0.520832 2.60416 0.977341 3.3776 1.66666 3.83072C1.25826 3.82103 0.858224 3.71294 0.500519 3.51562V3.54687C0.500519 4.77082 1.38593 5.78905 2.5578 6.02082C2.33744 6.07956 2.11035 6.10933 1.88229 6.10936C1.72046 6.10964 1.559 6.09394 1.40026 6.06249C1.72604 7.06509 2.67421 7.79425 3.79738 7.81508C2.88473 8.51845 1.76422 8.89861 0.611977 8.89581C0.407451 8.89551 0.203115 8.88333 0 8.85935C1.17218 9.60784 2.53474 10.0038 3.92551 9.99997C8.64841 9.99997 11.2286 6.15363 11.2286 2.8177C11.2286 2.70833 11.2257 2.59895 11.2205 2.49218C11.7213 2.13595 12.1546 1.69326 12.5 1.1849Z" fill="#ffffff"/>
</svg>
