<svg width="160" height="39" viewBox="0 0 160 39" fill="none" xmlns="http://www.w3.org/2000/svg">
<path fill-rule="evenodd" clip-rule="evenodd" d="M18.5937 36.6491C28.102 36.6491 35.81 28.941 35.81 19.4327C35.81 9.92438 28.102 2.21636 18.5937 2.21636C9.08533 2.21636 1.37731 9.92438 1.37731 19.4327C1.37731 28.941 9.08533 36.6491 18.5937 36.6491ZM18.5937 38.0264C28.8627 38.0264 37.1873 29.7017 37.1873 19.4327C37.1873 9.16372 28.8627 0.83905 18.5937 0.83905C8.32467 0.83905 0 9.16372 0 19.4327C0 29.7017 8.32467 38.0264 18.5937 38.0264Z" fill="url(#paint0_linear_61_12)"/>
<path fill-rule="evenodd" clip-rule="evenodd" d="M35.81 2.21636H1.37731V36.6491H35.81V2.21636ZM0 0.83905V38.0264H37.1873V0.83905H0Z" fill="url(#paint1_linear_61_12)"/>
<path d="M57.0382 18.6536C56.4511 18.5068 55.7614 18.3601 54.9689 18.2133C54.1764 18.0372 53.3253 17.9492 52.4154 17.9492C52.0045 17.9492 51.5055 17.9932 50.9185 18.0812C50.3608 18.1399 49.9352 18.2133 49.6417 18.3014V36H43.0818V14.0748C44.2558 13.6639 45.6353 13.2824 47.2203 12.9302C48.8346 12.5486 50.625 12.3578 52.5915 12.3578C52.9437 12.3578 53.3693 12.3872 53.8683 12.4459C54.3672 12.4752 54.8662 12.5339 55.3651 12.622C55.8641 12.6807 56.3631 12.7687 56.862 12.8861C57.361 12.9742 57.7866 13.0916 58.1388 13.2383L57.0382 18.6536Z" fill="white"/>
<path d="M66.8168 24.2449C66.8168 26.2702 67.2718 27.8991 68.1816 29.1319C69.0915 30.3646 70.4417 30.981 72.2321 30.981C72.8191 30.981 73.3621 30.9663 73.861 30.937C74.36 30.8783 74.7709 30.8195 75.0938 30.7608V18.8297C74.6829 18.5655 74.1399 18.3454 73.4648 18.1693C72.8191 17.9932 72.1587 17.9051 71.4836 17.9051C68.3724 17.9051 66.8168 20.0184 66.8168 24.2449ZM81.6537 35.2515C81.0667 35.4276 80.3916 35.6038 79.6285 35.7799C78.8654 35.9266 78.0582 36.0587 77.2071 36.1761C76.3852 36.2935 75.5341 36.3816 74.6535 36.4403C73.8023 36.5283 72.9805 36.5723 72.188 36.5723C70.2802 36.5723 68.5779 36.2935 67.081 35.7358C65.5841 35.1782 64.322 34.3857 63.2947 33.3584C62.2674 32.3018 61.475 31.0397 60.9173 29.5721C60.389 28.0752 60.1248 26.4022 60.1248 24.5531C60.1248 22.6747 60.3596 20.987 60.8292 19.4901C61.2989 17.9638 61.9739 16.6724 62.8545 15.6158C63.735 14.5591 64.8063 13.752 66.0684 13.1943C67.3598 12.6367 68.8274 12.3578 70.471 12.3578C71.3809 12.3578 72.188 12.4459 72.8925 12.622C73.6262 12.7981 74.36 13.0476 75.0938 13.3704V2.89214L81.6537 1.83551V35.2515Z" fill="white"/>
<path d="M109.457 24.377C109.457 26.1968 109.193 27.8698 108.665 29.396C108.136 30.8929 107.373 32.1844 106.375 33.2703C105.377 34.327 104.174 35.1488 102.765 35.7358C101.386 36.3228 99.83 36.6164 98.0983 36.6164C96.3959 36.6164 94.8403 36.3228 93.4315 35.7358C92.052 35.1488 90.8633 34.327 89.8653 33.2703C88.8674 32.1844 88.0896 30.8929 87.5319 29.396C86.9743 27.8698 86.6954 26.1968 86.6954 24.377C86.6954 22.5573 86.9743 20.8989 87.5319 19.402C88.1189 17.9051 88.9114 16.6284 89.9094 15.5717C90.9366 14.5151 92.14 13.6933 93.5195 13.1063C94.9284 12.5192 96.4546 12.2257 98.0983 12.2257C99.7713 12.2257 101.298 12.5192 102.677 13.1063C104.086 13.6933 105.289 14.5151 106.287 15.5717C107.285 16.6284 108.063 17.9051 108.621 19.402C109.178 20.8989 109.457 22.5573 109.457 24.377ZM102.765 24.377C102.765 22.3518 102.354 20.7669 101.532 19.6222C100.74 18.4481 99.5952 17.8611 98.0983 17.8611C96.6014 17.8611 95.442 18.4481 94.6202 19.6222C93.7983 20.7669 93.3874 22.3518 93.3874 24.377C93.3874 26.4022 93.7983 28.0165 94.6202 29.2199C95.442 30.394 96.6014 30.981 98.0983 30.981C99.5952 30.981 100.74 30.394 101.532 29.2199C102.354 28.0165 102.765 26.4022 102.765 24.377Z" fill="white"/>
<path d="M120.13 24.2449C120.13 26.2702 120.585 27.8991 121.495 29.1319C122.405 30.3646 123.755 30.981 125.545 30.981C126.132 30.981 126.675 30.9663 127.174 30.937C127.673 30.8783 128.084 30.8195 128.407 30.7608V18.8297C127.996 18.5655 127.453 18.3454 126.778 18.1693C126.132 17.9932 125.472 17.9051 124.797 17.9051C121.686 17.9051 120.13 20.0184 120.13 24.2449ZM134.967 35.2515C134.38 35.4276 133.705 35.6038 132.942 35.7799C132.179 35.9266 131.371 36.0587 130.52 36.1761C129.698 36.2935 128.847 36.3816 127.967 36.4403C127.116 36.5283 126.294 36.5723 125.501 36.5723C123.593 36.5723 121.891 36.2935 120.394 35.7358C118.897 35.1782 117.635 34.3857 116.608 33.3584C115.581 32.3018 114.788 31.0397 114.23 29.5721C113.702 28.0752 113.438 26.4022 113.438 24.5531C113.438 22.6747 113.673 20.987 114.142 19.4901C114.612 17.9638 115.287 16.6724 116.168 15.6158C117.048 14.5591 118.119 13.752 119.382 13.1943C120.673 12.6367 122.141 12.3578 123.784 12.3578C124.694 12.3578 125.501 12.4459 126.206 12.622C126.939 12.7981 127.673 13.0476 128.407 13.3704V2.89214L134.967 1.83551V35.2515Z" fill="white"/>
<path d="M149.959 31.4212C150.604 31.4212 151.221 31.4066 151.808 31.3772C152.395 31.3479 152.864 31.3038 153.217 31.2451V26.2702C152.952 26.2115 152.556 26.1528 152.028 26.094C151.5 26.0353 151.015 26.006 150.575 26.006C149.959 26.006 149.372 26.05 148.814 26.1381C148.286 26.1968 147.816 26.3289 147.405 26.5343C146.994 26.7398 146.671 27.0186 146.436 27.3708C146.202 27.723 146.084 28.1633 146.084 28.6916C146.084 29.7189 146.422 30.438 147.097 30.8489C147.801 31.2305 148.755 31.4212 149.959 31.4212ZM149.43 12.2257C151.367 12.2257 152.982 12.4459 154.273 12.8861C155.565 13.3264 156.592 13.9574 157.355 14.7793C158.147 15.6011 158.705 16.599 159.028 17.7731C159.351 18.9471 159.512 20.2532 159.512 21.6914V35.3396C158.573 35.545 157.267 35.7799 155.594 36.044C153.921 36.3375 151.896 36.4843 149.518 36.4843C148.021 36.4843 146.657 36.3522 145.424 36.088C144.22 35.8239 143.179 35.3983 142.298 34.8113C141.417 34.1949 140.742 33.4024 140.273 32.4339C139.803 31.4653 139.568 30.2766 139.568 28.8677C139.568 27.5176 139.833 26.3729 140.361 25.4337C140.918 24.4944 141.652 23.746 142.562 23.1883C143.472 22.6306 144.514 22.2344 145.688 21.9996C146.862 21.7354 148.08 21.6034 149.342 21.6034C150.193 21.6034 150.942 21.6474 151.588 21.7354C152.263 21.7941 152.806 21.8822 153.217 21.9996V21.3832C153.217 20.2679 152.879 19.3727 152.204 18.6976C151.529 18.0225 150.355 17.685 148.682 17.685C147.566 17.685 146.466 17.7731 145.38 17.9492C144.294 18.0959 143.355 18.3161 142.562 18.6096L141.726 13.3264C142.107 13.209 142.577 13.0916 143.134 12.9742C143.722 12.8274 144.353 12.71 145.028 12.622C145.703 12.5046 146.407 12.4165 147.141 12.3578C147.904 12.2698 148.667 12.2257 149.43 12.2257Z" fill="white"/>
<path d="M26.65 36C26.3271 34.9433 25.9602 33.8574 25.5493 32.742C25.1678 31.6267 24.7862 30.5113 24.4046 29.396H12.5175C12.136 30.5113 11.7397 31.6267 11.3288 32.742C10.9472 33.8574 10.595 34.9433 10.2722 36H3.13989C4.28458 32.7127 5.37056 29.6748 6.39785 26.8865C7.42513 24.0982 8.42306 21.4713 9.39164 19.0058C10.3896 16.5403 11.3582 14.2069 12.2974 12.0056C13.266 9.77492 14.2639 7.60295 15.2912 5.48969H21.8511C22.849 7.60295 23.8323 9.77492 24.8009 12.0056C25.7695 14.2069 26.738 16.5403 27.7066 19.0058C28.7045 21.4713 29.7172 24.0982 30.7444 26.8865C31.7717 29.6748 32.8577 32.7127 34.0024 36H26.65ZM18.417 12.4018C18.2703 12.8421 18.0502 13.4438 17.7567 14.2069C17.4631 14.97 17.1256 15.8506 16.744 16.8485C16.3625 17.8464 15.9369 18.9471 15.4673 20.1505C15.027 21.3539 14.5721 22.6159 14.1025 23.9367H22.7757C22.306 22.6159 21.8511 21.3539 21.4108 20.1505C20.9706 18.9471 20.545 17.8464 20.1341 16.8485C19.7525 15.8506 19.415 14.97 19.1215 14.2069C18.828 13.4438 18.5932 12.8421 18.417 12.4018Z" fill="white"/>
<defs>
<linearGradient id="paint0_linear_61_12" x1="18.5937" y1="0.83905" x2="18.5937" y2="38.0264" gradientUnits="userSpaceOnUse">
<stop stop-color="white"/>
<stop offset="1" stop-color="white"/>
</linearGradient>
<linearGradient id="paint1_linear_61_12" x1="18.5937" y1="0.83905" x2="18.5937" y2="38.0264" gradientUnits="userSpaceOnUse">
<stop stop-color="white"/>
<stop offset="1" stop-color="white"/>
</linearGradient>
</defs>
</svg>
