<svg width="41" height="41" viewBox="0 0 41 41" fill="none" xmlns="http://www.w3.org/2000/svg">
<path d="M31.7726 20.5288C31.744 26.7707 26.7516 31.7679 20.4955 31.7751C14.4421 31.7822 9.17069 27.0377 9.22552 20.3905C9.27797 13.9603 14.4779 9.18718 20.5694 9.22532C26.7993 9.26347 31.7965 14.2941 31.775 20.5288H31.7726ZM18.7098 14.8616C18.5715 14.9045 18.4713 14.9283 18.3736 14.9665C16.1945 15.8057 14.6281 18.085 14.7187 20.4668C14.7997 22.646 15.7748 24.3054 17.6464 25.3783C19.5824 26.4869 21.5732 26.4559 23.4805 25.2924C26.9352 23.1824 27.1593 18.2924 23.9311 15.7628C23.4948 15.4195 22.9655 15.193 22.472 14.9259C22.3432 14.8568 22.1668 14.7972 22.174 15.0642C22.1835 15.5673 22.2073 16.0727 22.2026 16.5758C22.2026 16.7999 22.2741 16.9287 22.4672 17.0503C23.881 17.9563 24.5391 19.5108 24.2196 21.1559C23.8786 22.9202 22.3266 24.1886 20.4884 24.2053C18.6716 24.2219 17.1934 23.0918 16.719 21.3561C16.2374 19.5894 17.1457 17.725 18.5166 17.036C18.6001 16.993 18.7026 16.881 18.705 16.7975C18.7217 16.1657 18.7145 15.5363 18.7145 14.8592L18.7098 14.8616ZM19.7207 15.5864C19.7207 15.5864 19.7159 15.5864 19.7135 15.5864C19.7135 16.1991 19.6873 16.8142 19.7207 17.427C19.7564 18.0636 20.3525 18.4188 20.8722 18.1613C21.2274 17.9873 21.318 17.6725 21.3204 17.3221C21.3276 16.2039 21.3276 15.0833 21.3204 13.9651C21.3204 13.8197 21.2894 13.6671 21.2418 13.5288C21.1273 13.1855 20.784 12.9804 20.4288 13.021C20.0306 13.0663 19.7445 13.3428 19.7254 13.7744C19.7016 14.3776 19.7183 14.9808 19.7183 15.5864H19.7207Z" fill="white"/>
<path d="M29.6519 37.9247C29.4648 37.9247 29.1898 37.8268 29.0162 37.4996C28.2702 36.1022 27.5128 34.712 26.7735 33.3123C26.5639 32.9158 26.6338 32.4118 26.8862 32.1156C27.1477 31.8099 27.5827 31.6785 27.9343 31.8529C28.1079 31.9388 28.2814 32.1013 28.3784 32.2756C28.9013 33.212 29.4017 34.165 29.9111 35.1133C30.1545 35.5696 30.3844 36.0377 30.6436 36.482C30.9524 37.0099 30.5783 37.9391 29.6519 37.9247Z" fill="white"/>
<path d="M13.423 9.2252C13.0659 9.2252 12.7626 9.11934 12.5739 8.76328C11.8416 7.37512 11.098 5.99177 10.3747 4.5988C10.1636 4.19222 10.231 3.78082 10.4983 3.42476C10.7386 3.10719 11.1901 2.97969 11.5383 3.15291C11.7113 3.23951 11.8843 3.4007 11.9831 3.57633C12.5043 4.51941 13.003 5.47693 13.5084 6.42963C13.751 6.88914 14.0071 7.34144 14.2317 7.81057C14.5664 8.51548 14.1576 9.22038 13.423 9.22279V9.2252Z" fill="white"/>
<path d="M9.21024 27.6571C9.28711 28.0056 9.0589 28.2341 8.72739 28.4118C7.3533 29.1481 5.98403 29.889 4.60754 30.6206C4.22078 30.826 3.67307 30.7776 3.39681 30.5398C3.10134 30.2836 2.97642 29.762 3.1638 29.372C3.23346 29.2289 3.3872 29.1019 3.53374 29.0212C4.8862 28.271 6.24587 27.5279 7.61034 26.7962C7.78571 26.7039 8.00431 26.6554 8.2061 26.6508C8.88353 26.63 9.21744 26.9624 9.21024 27.6594V27.6571Z" fill="white"/>
<path d="M8.21947 14.35C8.03147 14.2959 7.82661 14.2711 7.6603 14.1832C6.26722 13.4528 4.87895 12.7156 3.4955 11.9717C3.11228 11.7665 2.95803 11.106 3.17254 10.6979C3.36776 10.326 3.95826 10.1231 4.39209 10.3372C5.34412 10.8062 6.28168 11.3089 7.22165 11.8003C7.72538 12.0641 8.22911 12.3346 8.72801 12.6096C9.1281 12.8306 9.30887 13.2747 9.18836 13.694C9.07749 14.0817 8.72078 14.3139 8.22429 14.35H8.21947Z" fill="white"/>
<path d="M37.9103 11.2575C37.985 11.6008 37.7657 11.8335 37.4306 12.0109C36.0519 12.7459 34.678 13.4878 33.2945 14.2159C32.7835 14.4855 32.14 14.3311 31.8893 13.9095C31.641 13.4924 31.8073 12.845 32.287 12.5777C33.6416 11.8243 35.0107 11.0916 36.3821 10.3635C36.5316 10.2851 36.7244 10.2529 36.8979 10.2506C37.5801 10.2344 37.9151 10.5593 37.9103 11.2575Z" fill="white"/>
<path d="M13.3966 31.775C14.1426 31.7653 14.5709 32.4331 14.2328 33.1324C13.7257 34.1863 13.1645 35.2086 12.6258 36.2431C12.4117 36.6559 12.1999 37.0711 11.9677 37.4718C11.7221 37.8943 11.0752 38.0546 10.6989 37.8093C10.2797 37.5398 10.1196 36.94 10.3676 36.4592C10.8814 35.4563 11.4133 34.4607 11.9384 33.4651C12.1368 33.0887 12.3441 32.7172 12.5312 32.3359C12.7228 31.945 13.0135 31.7653 13.3989 31.7774L13.3966 31.775Z" fill="white"/>
<path d="M37.914 29.7607C37.9213 30.5948 37.24 30.9836 36.4857 30.6039C35.4224 30.0681 34.381 29.494 33.3274 28.9379C32.96 28.7435 32.5829 28.5627 32.2203 28.3615C31.8043 28.1286 31.6558 27.5771 31.8772 27.1431C32.0792 26.7452 32.5512 26.5508 33.0233 26.7C33.2885 26.7837 33.5416 26.9057 33.7873 27.0323C34.9674 27.6472 36.1353 28.2756 37.3203 28.8836C37.7364 29.0961 37.987 29.3629 37.9116 29.7585L37.914 29.7607Z" fill="white"/>
<path d="M27.6191 9.22224C26.8674 9.22224 26.4756 8.61515 26.7247 7.92792C26.7677 7.8065 26.8221 7.68751 26.881 7.57338C27.5738 6.25963 28.2667 4.94588 28.9619 3.63455C29.2019 3.18288 29.5823 3.00075 30.0533 3.10274C30.6646 3.23387 30.9318 3.90167 30.6171 4.58405C30.3748 5.10615 30.0895 5.60396 29.82 6.11149C29.3672 6.96871 28.9098 7.82593 28.4592 8.68314C28.2599 9.0644 27.9656 9.25138 27.6191 9.22224Z" fill="white"/>
<path d="M3.63496 21.5176C2.97527 21.5176 2.31306 21.5176 1.65338 21.5176C1.41327 21.5176 1.17062 21.5176 0.93051 21.49C0.344125 21.4172 0.01302 21.071 0.000382372 20.5392C-0.0122552 19.9747 0.28852 19.621 0.87996 19.5056C0.96084 19.4905 1.04678 19.478 1.13018 19.478C2.76802 19.4755 4.40332 19.473 6.04116 19.478C6.44809 19.478 6.78425 19.6135 7.03447 19.9697C7.38074 20.4639 7.06733 21.4724 6.3116 21.4824C5.41939 21.4925 4.52717 21.485 3.63748 21.485V21.5251L3.63496 21.5176Z" fill="white"/>
<path d="M37.5144 21.524C36.7317 21.524 35.949 21.5265 35.1663 21.524C34.9878 21.524 34.8068 21.509 34.6309 21.4765C34.1083 21.3815 33.8304 21.044 33.8253 20.5216C33.8202 19.9791 34.0955 19.6242 34.6182 19.5217C34.7711 19.4917 34.9318 19.4792 35.0898 19.4792C36.6246 19.4767 38.1569 19.4692 39.6917 19.4842C39.9594 19.4867 40.2399 19.5492 40.4872 19.6492C40.867 19.8042 41.0685 20.2841 40.9792 20.6966C40.8925 21.099 40.4999 21.4815 40.1149 21.4865C39.2481 21.5015 38.3813 21.4915 37.5144 21.4915C37.5144 21.5015 37.5144 21.514 37.5144 21.524Z" fill="white"/>
<path d="M19.4751 37.3999C19.4751 36.5292 19.4751 35.656 19.4751 34.7853C19.4751 34.2681 19.8714 33.8635 20.3998 33.8276C20.9075 33.7918 21.4048 34.158 21.4877 34.6317C21.511 34.7674 21.5239 34.9057 21.5239 35.044C21.5239 36.6598 21.5265 38.2756 21.5239 39.8915C21.5239 40.693 21.081 41.0848 20.3066 40.9849C19.8222 40.9209 19.4881 40.5701 19.4829 40.081C19.4725 39.1873 19.4803 38.2961 19.4803 37.4024H19.4777L19.4751 37.3999Z" fill="white"/>
<path d="M21.5225 3.58357C21.5225 4.46613 21.5225 5.34612 21.5225 6.22867C21.5225 6.74797 21.2537 7.06518 20.7347 7.15983C20.2578 7.24425 19.7177 6.96797 19.5649 6.53821C19.5096 6.38216 19.4859 6.20565 19.4859 6.03937C19.4806 4.37148 19.5043 2.70358 19.4753 1.03568C19.4595 0.186382 20.2394 -0.197336 21.0087 0.0994062C21.3538 0.232429 21.5251 0.506148 21.5251 0.877076C21.5251 1.78009 21.5251 2.68311 21.5251 3.58613L21.5225 3.58357Z" fill="white"/>
</svg>
