<svg width="51" height="41" viewBox="0 0 51 41" fill="none" xmlns="http://www.w3.org/2000/svg">
<path d="M19.7157 37.6085C19.1605 37.4522 18.6723 37.3211 18.1897 37.1761C16.9594 36.7994 15.7319 36.4089 14.5016 36.0378C10.9278 34.9637 7.35132 33.898 3.7748 32.8323C3.56277 32.771 3.50977 32.6566 3.50977 32.4557C3.51535 31.7722 3.50977 31.0887 3.50977 30.4052C3.50977 21.5894 3.50977 12.7709 3.50977 3.9551V2.58252C3.71342 2.69132 3.85291 2.76107 3.98961 2.83918C9.13679 5.80195 14.2812 8.76751 19.4312 11.7247C19.6488 11.8502 19.7325 11.9841 19.7325 12.2436C19.7213 20.1806 19.7213 28.1148 19.7185 36.0518C19.7185 36.5456 19.7185 37.0421 19.7185 37.6085H19.7157Z" fill="white"/>
<path d="M37.6063 2.60205C37.6063 2.7806 37.6063 2.89498 37.6063 3.00936C37.6063 12.7737 37.6063 22.538 37.6147 32.3051C37.6147 32.6092 37.5422 32.7403 37.2353 32.8295C33.6225 33.8952 30.0125 34.9749 26.4025 36.0546C24.8151 36.5288 23.2305 37.017 21.6459 37.4997C21.5817 37.5192 21.5147 37.5304 21.3976 37.5583C21.3836 37.3853 21.3613 37.2291 21.3613 37.0756C21.3613 29.2 21.3613 21.3216 21.3585 13.446C21.3585 13.0415 21.3669 12.6342 21.3418 12.2297C21.325 11.9953 21.4171 11.8809 21.6096 11.7693C24.5166 10.1038 27.4208 8.42994 30.3249 6.75606C32.4257 5.54808 34.5264 4.33731 36.6271 3.12932C36.9256 2.95636 37.2353 2.80013 37.6035 2.60205H37.6063Z" fill="white"/>
<path d="M1.86638 2.55475C1.86638 5.22738 1.86638 7.80795 1.86638 10.3885C1.86638 18.0019 1.86638 25.6125 1.86638 33.2258C1.86638 33.5048 1.82732 33.7838 1.84685 34.0572C1.85522 34.1604 1.96681 34.3166 2.05887 34.3417C4.87378 35.1229 7.69706 35.8845 10.512 36.6573C13.3631 37.4412 16.2115 38.2335 19.0599 39.0314C20.0838 39.3187 21.0853 39.302 22.1036 38.9672C25.0664 37.9908 28.0375 37.0506 31.0059 36.0937C33.751 35.2066 36.4962 34.3138 39.2776 33.4127V2.50732C39.7351 2.85884 40.0978 3.18525 40.5051 3.43075C41.0659 3.7711 41.1552 4.23142 41.1524 4.85355C41.1245 11.2617 41.1328 17.6671 41.13 24.0753C41.13 27.3896 41.13 30.7038 41.13 34.0153C41.13 34.7546 41.13 34.7491 40.4382 34.9667C35.3077 36.5875 30.1801 38.2112 25.0496 39.8321C23.9672 40.1752 22.8903 40.5407 21.7911 40.8308C20.8677 41.0735 19.9108 41.0484 18.9958 40.7973C14.6241 39.5977 10.2609 38.3646 5.89206 37.1483C4.03684 36.6322 2.18162 36.1244 0.323617 35.6195C0.097643 35.5581 0 35.4688 0 35.2177C0.0083694 27.7801 0.0083694 20.3397 0.0083694 12.9021C0.013949 10.0482 0.0167388 7.18861 0.0055796 4.32627C0.0055796 4.02777 0.0948532 3.82969 0.334776 3.65672C0.747667 3.35821 1.13824 3.02623 1.54276 2.71656C1.61808 2.65797 1.71573 2.63008 1.86638 2.55754V2.55475Z" fill="white"/>
<path d="M50.2666 5.37499C50.2666 5.77114 50.2666 6.11708 50.2666 6.46301C50.2666 14.5144 50.2583 22.563 50.2834 30.6143C50.2862 31.7191 50.155 32.7708 49.8258 33.8226C49.3488 35.3458 48.9331 36.8858 48.4867 38.4174C48.4533 38.529 48.3919 38.6322 48.3445 38.7382C48.3138 38.7382 48.2859 38.7326 48.2552 38.7299C48.0962 38.1803 47.9372 37.6307 47.7781 37.0783C47.3736 35.6666 46.9551 34.2606 46.5701 32.8434C46.4669 32.4695 46.4083 32.0706 46.4083 31.6828C46.3972 23.0288 46.4 14.3777 46.3916 5.72371C46.3916 5.45589 46.453 5.36104 46.7375 5.36383C47.8981 5.37778 49.0559 5.36941 50.2722 5.36941L50.2666 5.37499Z" fill="white"/>
<path d="M50.2835 3.97212H46.3889C46.3889 3.24677 46.3861 2.53537 46.3889 1.82118C46.3945 1.06236 46.8297 0.381644 47.5551 0.136141C49.0114 -0.357653 50.2612 0.551822 50.2807 1.89651C50.2891 2.57722 50.2807 3.25514 50.2807 3.97212H50.2835Z" fill="white"/>
</svg>
