<svg width="48" height="42" viewBox="0 0 48 42" fill="none" xmlns="http://www.w3.org/2000/svg">
<path d="M23.9878 20.5556C31.5827 20.5556 39.1804 20.5556 46.7753 20.5556C46.9601 20.5556 47.1449 20.5501 47.3243 20.5777C47.8843 20.6605 48.0636 20.8922 47.9808 21.4495C47.7767 22.8399 47.3932 24.1862 46.8691 25.4883C44.8386 30.5506 41.357 34.3219 36.6478 37.0089C35.3484 37.751 33.9801 38.3386 32.5676 38.8242C32.2393 38.9373 32.1179 39.1111 32.1455 39.4532C32.1731 39.8063 32.1455 40.1649 32.1538 40.5208C32.1566 40.805 32.0103 40.9512 31.7427 40.9733C31.4917 40.9953 31.2379 41.0064 30.9868 41.0064C26.8487 41.0036 22.7133 40.9981 18.5751 40.9926C18.0482 40.9926 17.5185 41.0174 16.9916 40.9871C16.5006 40.9567 16.3516 40.7608 16.3543 40.2781C16.3543 39.9691 16.3433 39.6573 16.3709 39.3483C16.393 39.1001 16.2826 39.009 16.0619 38.9428C13.9073 38.3083 11.9182 37.3234 10.0478 36.0958C5.73309 33.2653 2.62947 29.4554 0.883174 24.5834C0.527293 23.593 0.301074 22.5585 0.0500261 21.535C-0.112741 20.8674 0.116236 20.597 0.816963 20.5667C1.20595 20.5501 1.59769 20.5584 1.98944 20.5584C9.32224 20.5584 16.6523 20.5584 23.9851 20.5584L23.9878 20.5556Z" fill="white"/>
<path d="M15.132 18.7023C15.2534 18.2168 15.3941 17.7892 15.4658 17.3533C15.6479 16.2415 15.3858 15.2042 14.8203 14.2497C14.5527 13.7972 14.2547 13.3475 13.8989 12.9641C11.347 10.2219 10.9994 7.07135 12.1277 3.63945C12.4671 2.61043 12.9554 1.65313 13.5264 0.731707C14.0092 -0.0517831 15.2865 -0.324901 16.2052 0.538593C16.5556 0.869645 16.55 1.62555 16.2135 2.1442C15.6038 3.08769 15.1707 4.10844 14.8837 5.19263C14.2878 7.45206 14.652 9.49079 16.2769 11.2399C17.2039 12.2358 17.9101 13.3669 18.3129 14.6773C18.6991 15.9298 18.6881 17.1878 18.3874 18.4513C18.3625 18.5506 18.2246 18.6913 18.1363 18.694C17.1377 18.7106 16.139 18.7051 15.132 18.7051V18.7023Z" fill="white"/>
<path d="M27.6517 18.68H24.4433C24.5591 18.2772 24.6943 17.8992 24.7716 17.5103C25.0226 16.2826 24.6916 15.1625 24.0515 14.128C23.7757 13.6811 23.4474 13.259 23.0942 12.87C20.9976 10.5526 20.4293 7.8656 21.1217 4.86682C21.45 3.44606 21.999 2.11633 22.7908 0.891439C23.2901 0.121743 24.1205 -0.148616 24.9785 0.176919C25.7785 0.480383 26.0572 1.29698 25.5937 2.03081C24.813 3.26674 24.2529 4.59095 24.0267 6.0393C23.7205 7.98423 24.206 9.70018 25.5357 11.1651C26.3192 12.0286 26.9924 12.9638 27.4227 14.0618C28.0131 15.5681 28.0793 17.0964 27.649 18.6827L27.6517 18.68Z" fill="white"/>
<path d="M33.7493 18.6992C33.8679 18.1144 34.0196 17.5847 34.0748 17.044C34.2238 15.5791 33.6251 14.3625 32.7368 13.2562C32.3285 12.7458 31.8788 12.263 31.5147 11.7223C30.0277 9.52083 29.8456 7.11243 30.4636 4.59643C30.7836 3.2943 31.316 2.07768 32.0112 0.93555C32.5685 0.0196392 33.3437 -0.223132 34.301 0.204477C35.0514 0.541046 35.319 1.25281 34.9052 1.95078C34.2734 3.0129 33.7217 4.10537 33.4486 5.31371C32.963 7.44624 33.2306 9.41324 34.7645 11.1016C35.6335 12.0589 36.4142 13.0879 36.7867 14.3487C36.9632 14.9446 37.0819 15.5763 37.1067 16.197C37.1343 16.9364 37.0432 17.6813 36.9798 18.4234C36.9715 18.5227 36.8363 18.6882 36.7563 18.6882C35.7466 18.7075 34.7369 18.6992 33.752 18.6992H33.7493Z" fill="white"/>
</svg>
