<svg width="30" height="41" viewBox="0 0 30 41" fill="none" xmlns="http://www.w3.org/2000/svg">
<path d="M21.0087 35.0923C19.0105 37.074 17.0275 39.0408 15.0545 41C13.1092 39.0558 11.1388 37.084 9.15828 35.1048C9.22874 35.0948 9.3445 35.0698 9.45775 35.0698C10.0441 35.0648 10.6279 35.0698 11.2143 35.0648C11.6723 35.0648 11.6773 35.0598 11.6421 34.595C11.5565 33.5079 11.4634 32.4233 11.3753 31.3388C11.3552 31.1014 11.3351 30.864 11.3275 30.624C11.32 30.4291 11.2571 30.3142 11.0356 30.3192C10.7965 30.3217 10.555 30.2917 10.3159 30.2917C8.76822 30.2917 7.22306 30.2917 5.67539 30.2917C5.05632 30.2917 4.95063 30.2092 4.85248 29.6119C4.34414 26.5756 3.83832 23.5393 3.33249 20.5005C2.8317 17.5042 2.33091 14.5078 1.83515 11.5115C1.31423 8.40021 0.80337 5.28893 0.289996 2.18014C0.196884 1.61786 0.101256 1.05558 0.0156933 0.490796C-0.0396706 0.118441 0.0408587 0.0259775 0.428406 0.00848435C0.773171 -0.00401078 1.11794 0.000987269 1.4627 0.000987269C10.5952 0.000987269 19.7303 0.000987269 28.8628 0.000987269C29.1346 0.000987269 29.4063 0.0159814 29.6756 0.0359736C29.9373 0.0534668 30.033 0.190913 29.9902 0.45581C29.8417 1.41793 29.7083 2.38506 29.5599 3.34718C29.1748 5.83621 28.7822 8.32774 28.3947 10.8168C28.0072 13.2958 27.6196 15.7748 27.2321 18.2539C26.8672 20.6005 26.5023 22.947 26.1374 25.2936C25.9058 26.778 25.6768 28.265 25.4403 29.7494C25.3673 30.2092 25.2113 30.3442 24.7256 30.3467C22.9917 30.3517 21.2553 30.3467 19.5214 30.3467C18.8998 30.3467 18.8922 30.3467 18.8394 30.9414C18.7262 32.2334 18.6255 33.5254 18.5122 34.8174C18.4946 35.0173 18.5676 35.0698 18.7564 35.0673C19.4157 35.0598 20.0725 35.0648 20.7318 35.0673C20.83 35.0673 20.9281 35.0823 21.0112 35.0898L21.0087 35.0923ZM27.8511 6.23106C27.8713 6.1161 27.8864 6.03863 27.8989 5.95866C28.1204 4.55671 28.3368 3.15476 28.5683 1.7528C28.6363 1.34047 28.6489 1.33047 28.2362 1.31298C28.1833 1.31298 28.133 1.31298 28.0801 1.31298C19.2848 1.31298 10.4895 1.31298 1.69422 1.31298C1.59608 1.31298 1.50045 1.32547 1.38469 1.33297C1.74959 3.21723 2.10442 5.05652 2.47183 6.8958C2.48693 6.97577 2.63541 7.08822 2.71846 7.08822C3.14627 7.08073 3.58666 7.10072 3.99686 7.00076C5.11672 6.72337 6.25419 6.46847 7.32875 6.06362C8.7959 5.50884 10.2404 5.46136 11.7025 5.96116C12.845 6.35101 13.9623 6.81583 15.1074 7.20068C16.723 7.74297 18.3789 8.03785 20.0952 7.85542C21.5371 7.70049 22.9112 7.28565 24.2575 6.76835C25.4126 6.32352 26.5601 5.8762 27.8536 6.23606L27.8511 6.23106ZM15.0545 11.3641C14.979 11.459 14.9161 11.524 14.8658 11.599C13.688 13.3858 12.5053 15.1701 11.3351 16.9619C10.8318 17.7341 10.4996 18.5762 10.2932 19.4784C9.89311 21.2177 10.6908 23.2144 12.2083 24.1741C13.5371 25.0137 14.9866 25.1637 16.4839 24.8013C18.3915 24.3415 19.5415 23.1045 19.8888 21.2002C20.1354 19.8458 19.7579 18.5837 19.0231 17.4342C17.9435 15.7448 16.8463 14.0655 15.7516 12.3862C15.5327 12.0488 15.2986 11.7214 15.0545 11.3666V11.3641Z" fill="white"/>
</svg>
