<svg width="56" height="42" viewBox="0 0 56 42" fill="none" xmlns="http://www.w3.org/2000/svg">
<path d="M15.0439 21.1112C15.0439 14.3827 15.0439 7.65677 15.0439 0.928274C15.0439 0.278786 15.11 0.209473 15.7474 0.209473C19.3763 0.209473 23.0027 0.209473 26.6316 0.209473C26.8094 0.209473 26.9897 0.227443 27.1624 0.268517C27.4392 0.335263 27.6017 0.512396 27.5789 0.820454C27.5738 0.884632 27.5789 0.948811 27.5789 1.01299C27.5789 14.4238 27.5789 27.8371 27.5789 41.2479C27.5789 41.366 27.5839 41.4841 27.5789 41.5996C27.5611 41.846 27.4519 42.0001 27.1827 41.9949C27.0557 41.9924 26.9288 42.0001 26.8043 42.0001C23.1652 42.0001 19.5261 42.0001 15.8896 42.0001C15.0795 42.0001 15.0566 41.9744 15.0566 41.1632C15.0566 34.4783 15.0566 27.7935 15.0566 21.1086H15.0465L15.0439 21.1112ZM17.1466 28.6766C17.1466 28.6766 17.1619 28.6766 17.167 28.6766C17.167 29.0924 17.1797 29.5058 17.1619 29.9191C17.1517 30.1552 17.2203 30.299 17.4615 30.3016C18.2716 30.3118 19.0792 30.3195 19.8893 30.3144C20.0798 30.3144 20.1839 30.2015 20.1813 29.9807C20.1712 29.0976 20.1712 28.2145 20.1737 27.3314C20.1737 27.1465 20.1001 27.0464 19.9198 27.0464C19.0894 27.0464 18.2589 27.0464 17.426 27.0464C17.2127 27.0464 17.1365 27.1543 17.1416 27.3673C17.1517 27.8037 17.1441 28.2402 17.1441 28.6766H17.1466ZM25.4965 28.7022C25.4965 28.7022 25.4914 28.7022 25.4889 28.7022C25.4889 28.2556 25.4812 27.8089 25.4914 27.3622C25.4965 27.1465 25.4076 27.0439 25.1994 27.0439C24.3994 27.0439 23.5995 27.0439 22.7995 27.0387C22.5278 27.0387 22.4491 27.1697 22.4567 27.4366C22.477 28.2761 22.4796 29.1156 22.477 29.9576C22.477 30.1655 22.5354 30.2939 22.7488 30.2964C23.569 30.3067 24.3867 30.3195 25.207 30.317C25.4228 30.317 25.5041 30.1681 25.4965 29.9499C25.4838 29.5366 25.4939 29.1207 25.4939 28.7048L25.4965 28.7022ZM17.1466 14.5881C17.1466 14.5881 17.1593 14.5881 17.167 14.5881C17.167 15.0245 17.172 15.4609 17.1644 15.8973C17.1593 16.0898 17.2152 16.2054 17.4184 16.2182C17.7104 16.2336 18.005 16.2618 18.297 16.267C18.7922 16.2747 19.2874 16.2747 19.7801 16.2618C20.001 16.2567 20.1864 16.1977 20.1813 15.8947C20.1661 15.0219 20.1686 14.1491 20.1737 13.2788C20.1737 13.0786 20.095 12.9759 19.8994 12.9759C19.0792 12.9759 18.2589 12.9759 17.4387 12.9759C17.2101 12.9759 17.1339 13.094 17.1416 13.3173C17.1543 13.7435 17.1441 14.1671 17.1441 14.5932L17.1466 14.5881ZM22.4618 14.6035C22.4618 14.6035 22.4745 14.6035 22.4821 14.6035C22.4821 15.0296 22.4897 15.4558 22.4796 15.8793C22.4745 16.0847 22.5329 16.2156 22.7488 16.2182C23.5665 16.2285 24.3867 16.2439 25.2044 16.2413C25.3949 16.2413 25.499 16.1258 25.4965 15.9076C25.4863 15.0347 25.4863 14.1619 25.4889 13.2917C25.4889 13.1043 25.4381 12.9759 25.2324 12.9759C24.402 12.9759 23.5716 12.9759 22.7411 12.9759C22.5278 12.9759 22.4542 13.0863 22.4593 13.2968C22.4694 13.7332 22.4618 14.1696 22.4618 14.606V14.6035ZM20.1737 35.7362C20.1737 35.7362 20.1737 35.7362 20.1763 35.7362C20.1763 35.3306 20.1585 34.925 20.1813 34.522C20.1991 34.2139 20.0594 34.0753 19.7877 34.0753C18.9979 34.0804 18.2081 34.101 17.4184 34.1189C17.2406 34.1215 17.1568 34.2062 17.1568 34.3987C17.1619 35.2818 17.1644 36.1675 17.1543 37.0506C17.1517 37.2868 17.2355 37.3766 17.4641 37.3741C18.264 37.3715 19.0665 37.3741 19.8664 37.3818C20.1026 37.3818 20.1788 37.2714 20.1737 37.0455C20.1636 36.6091 20.1712 36.1726 20.1712 35.7337L20.1737 35.7362ZM22.4796 35.7337C22.4796 36.1495 22.4948 36.5654 22.4745 36.9787C22.4618 37.2637 22.5532 37.3818 22.8427 37.3766C23.6122 37.3664 24.3816 37.3715 25.1511 37.3818C25.4127 37.3843 25.499 37.2739 25.4965 37.0172C25.4863 36.1752 25.4838 35.3332 25.5016 34.4912C25.5092 34.1882 25.3619 34.0727 25.113 34.0727C24.3232 34.0753 23.5335 34.0984 22.7437 34.1112C22.5151 34.1164 22.472 34.2498 22.477 34.4501C22.4872 34.8762 22.4796 35.3024 22.4796 35.7285V35.7337ZM22.505 9.16625C23.4014 9.16625 24.242 9.15341 25.0825 9.17395C25.3949 9.18165 25.4889 9.0687 25.4863 8.77091C25.4787 7.95199 25.4889 7.13307 25.4863 6.31415C25.4863 5.94705 25.4152 5.85976 25.0419 5.85206C24.3486 5.83666 23.6528 5.84436 22.9595 5.84949C22.8656 5.84949 22.7615 5.86233 22.6853 5.90854C22.6091 5.95732 22.5126 6.05487 22.5126 6.12931C22.4999 7.12793 22.505 8.12399 22.505 9.16625ZM17.1746 23.2394C18.1396 23.2394 19.0411 23.2445 19.9426 23.2291C20.0163 23.2291 20.1509 23.0725 20.1534 22.9878C20.1712 22.0739 20.1737 21.1574 20.1534 20.2435C20.1534 20.1434 19.9858 19.9611 19.8944 19.9585C19.097 19.9329 18.297 19.9354 17.4996 19.9431C17.2787 19.9431 17.1746 20.0715 17.1797 20.3179C17.1898 20.9777 17.1797 21.6375 17.1746 22.2972C17.1746 22.6027 17.1746 22.9056 17.1746 23.2394ZM22.4897 23.2394C23.4471 23.2394 24.3283 23.2342 25.2121 23.2419C25.4355 23.2419 25.4787 23.111 25.4787 22.9364C25.4838 22.0636 25.4838 21.1908 25.4863 20.3205C25.4863 20.0766 25.3797 19.938 25.1308 19.9329C24.7423 19.9252 24.3537 19.9175 23.9626 19.9149C23.6046 19.9149 23.2465 19.9149 22.891 19.9277C22.6243 19.938 22.477 20.0561 22.4923 20.3667C22.5151 20.8339 22.4923 21.3012 22.4923 21.7709C22.4923 22.2459 22.4923 22.7234 22.4923 23.2394H22.4897ZM17.1873 9.16368C18.0863 9.16368 18.937 9.15085 19.7877 9.17138C20.0924 9.17909 20.1686 9.05073 20.1661 8.77861C20.161 7.96996 20.1686 7.16131 20.1686 6.35266C20.1686 5.94191 20.1051 5.8572 19.6988 5.84693C19.0157 5.83152 18.33 5.83923 17.6469 5.84693C17.553 5.84693 17.4488 5.85976 17.3727 5.90597C17.2965 5.95218 17.1949 6.04717 17.1924 6.12161C17.1797 7.12023 17.1847 8.11885 17.1847 9.16625L17.1873 9.16368Z" fill="white"/>
<path d="M41.7906 24.918C41.7906 30.1935 41.7906 35.4716 41.7906 40.7471C41.7906 41.0249 41.7678 41.3027 41.7653 41.5805C41.7653 41.8685 41.649 42.0074 41.3455 41.9972C40.8954 41.9817 40.4428 41.9972 39.9902 41.9972C36.7029 41.9972 33.4156 41.9972 30.1283 41.9997C29.2812 41.9997 29.2711 41.992 29.2686 41.1226C29.2686 35.3121 29.2711 29.5016 29.2534 23.6911C29.2534 23.1818 29.4178 22.8114 29.7187 22.4256C33.183 17.9834 36.6296 13.5284 40.0837 9.07603C40.3897 8.68249 40.6856 8.27866 41.0168 7.90827C41.1154 7.79766 41.3203 7.71793 41.4669 7.73336C41.6692 7.75394 41.7678 7.93913 41.7678 8.16034C41.7704 9.09918 41.783 10.0406 41.783 10.9794C41.783 15.6248 41.783 20.2727 41.783 24.918H41.7881H41.7906ZM34.9455 22.1941C34.9455 22.1941 34.9379 22.1941 34.9328 22.1941C34.9328 21.4584 34.9379 20.7228 34.9303 19.9871C34.9303 19.7685 34.8797 19.5164 34.6344 19.4856C34.4979 19.4676 34.2931 19.5859 34.197 19.7068C33.1147 21.0649 32.0425 22.4307 30.983 23.8094C30.6594 24.2312 30.9021 24.8897 31.3977 24.9051C32.4016 24.9411 33.4106 24.9334 34.417 24.9051C34.8367 24.8923 34.9429 24.7199 34.9455 24.2724C34.948 23.5779 34.9455 22.886 34.9455 22.1915V22.1941ZM32.8366 29.1003C33.3094 29.1003 33.7797 29.1055 34.2526 29.1003C34.7305 29.0952 34.8747 28.9511 34.8797 28.4753C34.8848 28.0174 34.8873 27.557 34.8822 27.0992C34.8772 26.4819 34.7406 26.3121 34.1312 26.2941C33.2513 26.2684 32.3687 26.2735 31.4888 26.2941C30.9906 26.3044 30.8136 26.5076 30.8111 27.0117C30.8086 27.5236 30.8187 28.0354 30.8313 28.5473C30.844 28.964 30.9805 29.0978 31.3876 29.1029C31.8706 29.108 32.351 29.1029 32.834 29.1029L32.8366 29.1003ZM32.8037 33.2621C32.8037 33.2621 32.8037 33.2672 32.8037 33.2698C33.2968 33.2698 33.7899 33.2801 34.283 33.2672C34.7558 33.2544 34.8772 33.1206 34.8797 32.6473C34.8848 32.1355 34.8898 31.6236 34.8797 31.1118C34.8696 30.6565 34.7685 30.5099 34.3335 30.497C33.3296 30.4713 32.3232 30.4919 31.3168 30.4996C30.9805 30.5022 30.8237 30.7002 30.8263 31.0294C30.8263 31.6159 30.8389 32.2024 30.8414 32.7888C30.8414 33.1052 30.9881 33.2621 31.2991 33.2621C31.8023 33.2621 32.3055 33.2621 32.8087 33.2621H32.8037ZM32.7986 37.3441C32.7986 37.3441 32.7986 37.357 32.7986 37.3647C33.3018 37.3647 33.8076 37.375 34.3108 37.3621C34.7128 37.3493 34.8671 37.2258 34.8747 36.9068C34.8873 36.3204 34.8822 35.7314 34.8747 35.1449C34.8721 34.8234 34.728 34.6048 34.3866 34.6022C33.3499 34.597 32.3106 34.5996 31.2738 34.6073C30.9856 34.6099 30.8313 34.7848 30.8313 35.078C30.8313 35.6876 30.8389 36.2947 30.8414 36.9043C30.8414 37.1846 30.9628 37.3441 31.2561 37.3441C31.7695 37.3441 32.2853 37.3441 32.7986 37.3441ZM38.2504 29.1003C38.7537 29.1003 39.2594 29.1029 39.7626 29.1003C40.1318 29.0978 40.2987 28.9228 40.2987 28.5525C40.2987 28.0509 40.2987 27.5493 40.2987 27.0477C40.2987 26.5359 40.1444 26.3198 39.6463 26.3044C38.7233 26.2735 37.7978 26.2761 36.8748 26.2967C36.4172 26.307 36.2402 26.5384 36.2402 26.9937C36.2402 27.4953 36.2401 27.9969 36.2452 28.4984C36.2503 28.9357 36.407 29.0978 36.8344 29.1029C37.3073 29.108 37.7801 29.1029 38.2504 29.1029V29.1003ZM38.2909 33.2775V33.2672C38.784 33.2672 39.2771 33.2775 39.7702 33.2647C40.152 33.2544 40.2961 33.0923 40.2987 32.7065C40.3012 32.1509 40.2886 31.5953 40.3037 31.0397C40.3113 30.7336 40.1571 30.5819 39.8991 30.5176C39.7373 30.4764 39.5679 30.4636 39.401 30.4636C38.7815 30.4584 38.1619 30.4584 37.5424 30.4636C37.2592 30.4661 36.976 30.4687 36.6953 30.5073C36.3969 30.5485 36.2401 30.7362 36.2427 31.0603C36.2477 31.5825 36.2351 32.1072 36.2376 32.6293C36.2376 33.0743 36.4247 33.2672 36.8723 33.2775C37.3452 33.2878 37.818 33.2775 38.2884 33.2775H38.2909ZM38.3111 37.3673C38.784 37.3673 39.2543 37.3724 39.7272 37.3647C40.152 37.3595 40.2961 37.2078 40.2987 36.7885C40.2987 36.2458 40.286 35.7005 40.3037 35.1578C40.3138 34.8388 40.1545 34.6819 39.884 34.6176C39.7323 34.5816 39.5729 34.5687 39.4162 34.5662C38.6399 34.561 37.8636 34.5636 37.0898 34.5662C36.9659 34.5662 36.8369 34.5765 36.7155 34.6022C36.3742 34.6716 36.2503 34.8234 36.2477 35.1732C36.2427 35.6851 36.2376 36.1969 36.2427 36.7088C36.2452 37.1641 36.4197 37.3518 36.8673 37.3647C37.3502 37.3775 37.8307 37.3673 38.3137 37.3673H38.3111ZM38.3111 18.0529C38.3111 18.0529 38.3111 18.0374 38.3111 18.0297C38.0911 18.0297 37.8711 18.0297 37.6512 18.0297C37.421 18.0297 37.1909 18.0297 36.9608 18.0349C36.4197 18.0477 36.2427 18.2304 36.2427 18.7705C36.2427 19.2489 36.2427 19.7299 36.2427 20.2084C36.2427 20.6225 36.3716 20.8051 36.7863 20.8154C37.7801 20.8385 38.7764 20.8308 39.7727 20.8128C40.0585 20.8077 40.2835 20.6328 40.2936 20.3164C40.3113 19.7196 40.3063 19.1229 40.2936 18.5262C40.286 18.2355 40.1444 18.0477 39.8233 18.0529C39.3201 18.058 38.8194 18.0529 38.3162 18.0529H38.3111ZM38.2656 24.9283C38.2656 24.9283 38.2656 24.9283 38.2656 24.9257C38.7587 24.9257 39.2518 24.9386 39.7449 24.9231C40.1824 24.9077 40.2961 24.7714 40.2961 24.3341C40.2961 23.8222 40.2961 23.3078 40.2961 22.7959C40.2961 22.3947 40.2051 22.2892 39.8182 22.2224C39.6842 22.1992 39.5477 22.1838 39.4111 22.1812C38.5918 22.1786 37.7725 22.1786 36.9558 22.1812C36.842 22.1812 36.7257 22.2018 36.6144 22.2249C36.3666 22.2738 36.2376 22.4153 36.2427 22.6905C36.2528 23.2358 36.2427 23.7785 36.2402 24.3238C36.2402 24.81 36.3236 24.9128 36.8167 24.9283C37.2997 24.9437 37.7826 24.9308 38.2656 24.9308V24.9283ZM40.2329 14.4827H40.2304C40.2304 13.9914 40.2481 13.5001 40.2228 13.0089C40.2102 12.7928 40.104 12.5845 40.0408 12.371C39.8587 12.4944 39.6362 12.5845 39.5047 12.7491C38.6576 13.8088 37.8282 14.884 36.9937 15.954C36.7889 16.2164 36.8116 16.3733 37.105 16.5199C37.2137 16.5739 37.3477 16.597 37.4691 16.597C38.215 16.6048 38.9585 16.6099 39.7044 16.6048C40.0863 16.6022 40.2304 16.4453 40.2329 16.0517C40.238 15.5296 40.2329 15.0049 40.2329 14.4827Z" fill="white"/>
<path d="M55.994 35.31C55.994 37.2737 55.994 39.2348 55.994 41.1985C55.994 41.9599 55.9619 41.9993 55.2536 41.9993C51.5833 42.0019 47.9131 41.9993 44.2453 41.9993C44.1836 41.9993 44.1219 41.9993 44.0602 41.994C43.5369 41.9678 43.4629 41.8811 43.4629 41.3272C43.4629 37.3577 43.4629 33.3909 43.4629 29.4215C43.4629 28.7021 43.5271 28.6286 44.196 28.6286C47.8341 28.6286 51.4747 28.626 55.1129 28.6286C55.9842 28.6286 55.9965 28.6417 55.999 29.5868C56.0014 31.4954 55.999 33.404 55.999 35.31H55.994ZM47.1134 33.0129C47.1134 33.0129 47.1134 33.0207 47.1134 33.026C47.6046 33.026 48.0982 33.0339 48.5894 33.026C49.0016 33.0181 49.1225 32.8816 49.125 32.4563C49.1299 31.8682 49.1349 31.2802 49.1324 30.6921C49.1324 30.3272 49.0263 30.1723 48.6856 30.1697C47.6416 30.1618 46.5975 30.1828 45.5535 30.2012C45.2746 30.2064 45.1166 30.3771 45.1166 30.679C45.1166 31.288 45.1117 31.8997 45.1265 32.5088C45.1363 32.9184 45.2153 33.0024 45.6078 33.0129C46.1088 33.0286 46.6123 33.0155 47.1134 33.0155V33.0129ZM52.5212 33.0129V33.026C53.042 33.026 53.5653 33.0339 54.0861 33.0234C54.3996 33.0155 54.5328 32.8658 54.5378 32.5377C54.5452 31.9181 54.5353 31.2985 54.5526 30.679C54.5625 30.3429 54.3996 30.1697 54.1231 30.1697C53.0717 30.1644 52.0177 30.1828 50.9663 30.2012C50.6849 30.2064 50.5319 30.3797 50.5319 30.679C50.5319 31.2985 50.5393 31.9181 50.5393 32.5377C50.5393 32.8632 50.6923 33.0129 50.991 33.0129C51.5019 33.0129 52.0128 33.0129 52.5237 33.0129H52.5212ZM47.1776 37.2606V37.2711C47.6687 37.2711 48.1599 37.2816 48.6511 37.2685C49.0213 37.258 49.1299 37.1346 49.1299 36.7513C49.1299 36.1422 49.1225 35.5332 49.1225 34.9215C49.1225 34.6038 48.9769 34.4174 48.6807 34.4174C47.6169 34.4174 46.5531 34.4331 45.4893 34.4384C45.2277 34.4384 45.1215 34.5933 45.1191 34.8479C45.1141 35.436 45.1018 36.0241 45.1191 36.6095C45.1339 37.1215 45.2425 37.2343 45.7336 37.2527C46.215 37.2711 46.6963 37.2553 47.1776 37.2553V37.2606ZM52.5904 37.2606V37.2711C53.0914 37.2711 53.5925 37.2816 54.0935 37.2685C54.4267 37.2606 54.5403 37.132 54.5427 36.788C54.5452 36.1685 54.5353 35.5463 54.5353 34.9267C54.5353 34.609 54.3922 34.42 54.096 34.42C53.0322 34.42 51.9684 34.4358 50.9046 34.441C50.6454 34.441 50.5343 34.5933 50.5319 34.8506C50.5269 35.4386 50.5146 36.0267 50.5319 36.6121C50.5467 37.1241 50.6553 37.2396 51.1465 37.2553C51.6278 37.2737 52.1091 37.258 52.5904 37.258V37.2606Z" fill="white"/>
<path d="M8.76036 41.9971C8.76036 41.8573 8.76036 41.7605 8.76036 41.6637C8.76036 39.8327 8.76298 38.0017 8.76036 36.1707C8.76036 35.4985 8.60313 35.3291 7.93228 35.3049C7.32432 35.2834 6.71374 35.2969 6.10316 35.2969C5.80967 35.2969 5.51617 35.2942 5.22267 35.2969C4.66713 35.3049 4.48893 35.4958 4.48893 36.0712C4.49155 37.9479 4.49679 39.822 4.49941 41.6987C4.49941 41.7847 4.49941 41.8708 4.49941 41.9998C4.35266 41.9998 4.23736 41.9998 4.12206 41.9998C2.95855 41.9998 1.79243 41.9998 0.628922 41.9998C0.0524102 41.9998 0.00786152 41.9595 0.00786152 41.3814C0.00524102 38.2437 0.00262051 35.1059 0 31.9682C0 31.2019 0.0602717 31.1347 0.82546 31.1347C3.75257 31.1347 6.67968 31.1347 9.60678 31.1347C10.6393 31.1347 11.6744 31.132 12.7068 31.1401C13.2703 31.1455 13.3489 31.2127 13.362 31.7988C13.3803 32.6243 13.3672 33.4497 13.3672 34.2778C13.3672 36.5444 13.3751 38.811 13.3725 41.0776C13.3725 41.9622 13.3253 41.9998 12.4684 41.9998C11.3573 41.9998 10.2488 41.9998 9.13771 41.9998C9.02241 41.9998 8.90449 41.9998 8.76036 41.9998V41.9971Z" fill="white"/>
<path d="M6.6732 30.2984C4.71622 30.2984 2.75661 30.2984 0.799635 30.2984C0.646869 30.2984 0.49147 30.3033 0.341339 30.2836C0.0226386 30.2394 -0.0985201 29.959 0.0884857 29.7303C2.0481 27.3524 4.00507 24.9721 5.96732 22.5942C6.12008 22.4098 6.29392 22.2401 6.46775 22.0679C6.64949 21.8884 6.8286 21.9007 6.9919 22.095C7.33694 22.5032 7.68988 22.9065 8.02965 23.3196C9.71797 25.3655 11.401 27.4139 13.0867 29.4623C13.1605 29.5508 13.2368 29.6394 13.2974 29.7353C13.4686 30.0008 13.3396 30.2492 13.0051 30.2861C12.8655 30.3033 12.7206 30.2984 12.5784 30.2984C10.6109 30.2984 8.64071 30.2984 6.6732 30.2984Z" fill="white"/>
<path d="M49.7757 27.7895C47.902 27.7895 46.0258 27.7895 44.1521 27.7895C43.5967 27.7895 43.4856 27.6974 43.4782 27.2265C43.4683 26.7325 43.4609 26.2365 43.4634 25.7405C43.4634 25.416 43.5942 25.3093 43.9793 25.2884C44.0707 25.2842 44.1645 25.2842 44.2558 25.2842C47.8823 25.2842 51.5087 25.2842 55.1352 25.2842C55.1871 25.2842 55.2364 25.2842 55.2883 25.2842C55.9153 25.2905 55.9943 25.3574 55.9968 25.887C55.9968 26.3642 56.0042 26.8414 55.9968 27.3207C55.9918 27.7121 55.8906 27.7916 55.429 27.7916C53.5429 27.7916 51.6593 27.7916 49.7733 27.7916L49.7757 27.7895Z" fill="white"/>
</svg>
