<svg width="58" height="41" viewBox="0 0 58 41" fill="none" xmlns="http://www.w3.org/2000/svg">
<path d="M27.9873 22.3376C27.0467 24.1052 26.1516 25.7886 25.2512 27.4721C24.6643 28.5717 24.0693 29.666 23.4825 30.7656C23.2573 31.1865 22.9197 31.3874 22.4453 31.3413C21.8826 31.287 21.5663 31.01 21.4833 30.4425C21.226 28.6586 20.9875 26.872 20.7329 25.0908C20.4837 23.3395 20.2264 21.5909 19.9745 19.8423C19.8485 18.9843 19.7226 18.1262 19.5966 17.2682C19.5779 17.1406 19.543 17.0157 19.4975 16.7985C19.2616 17.3171 19.0606 17.7488 18.8677 18.1833C17.9967 20.1681 17.107 22.1475 16.2762 24.1486C15.9547 24.9252 15.5232 25.232 14.6469 25.2211C10.1286 25.1696 5.61031 25.1967 1.09202 25.1994C0.633759 25.1994 0.290734 25.0284 0.0924224 24.6075C-0.0871299 24.2219 -0.00137358 23.6572 0.317533 23.3911C0.494405 23.2417 0.743634 23.125 0.968745 23.1087C1.49936 23.0707 2.03534 23.1005 2.56864 23.1005C6.35263 23.1005 10.1366 23.0924 13.9206 23.1005C14.2637 23.1005 14.4432 22.9784 14.5772 22.6688C15.9815 19.4567 17.3911 16.25 18.8034 13.0433C18.9213 12.7772 19.0392 12.5084 19.1759 12.2505C19.4064 11.8242 19.744 11.6667 20.2371 11.7264C20.6471 11.778 20.9902 12.0523 21.0706 12.4894C21.2287 13.3637 21.3466 14.2462 21.4725 15.1286C22.0005 18.8648 22.5257 22.6037 23.051 26.3398C23.0671 26.4511 23.0724 26.5625 23.0939 26.7688C23.2091 26.5923 23.2922 26.4864 23.3538 26.3697C24.7098 23.8337 26.0632 21.2976 27.4165 18.7643C27.4701 18.6666 27.5264 18.5688 27.5746 18.4684C27.9043 17.8167 28.384 17.7543 29.0781 18.0149C29.3862 18.1317 29.4908 18.4168 29.5444 18.71C29.6864 19.4839 29.8177 20.2631 29.949 21.0397C30.6565 25.2239 31.364 29.4107 32.0688 33.5949C32.1465 34.0592 32.2028 34.5262 32.3288 35.0231C32.377 34.9281 32.444 34.8358 32.4735 34.7353C33.2721 32.0635 34.0653 29.3917 34.8586 26.7199C35.8796 23.2825 36.9006 19.845 37.919 16.4075C39.4144 11.3653 40.9097 6.3204 42.4051 1.27822C42.4614 1.08543 42.5177 0.887223 42.59 0.699872C42.7294 0.344176 42.9036 0.0400704 43.3565 0.00748759C43.8389 -0.0278104 44.2462 0.0482161 44.482 0.528812C45.018 1.62848 45.554 2.72815 46.0819 3.83054C47.3254 6.42358 48.5715 9.0112 49.7936 11.6151C49.9436 11.9328 50.0026 12.3238 49.9999 12.6795C49.9946 13.1112 49.6703 13.361 49.279 13.4642C48.8958 13.5674 48.5206 13.5158 48.2339 13.2008C48.116 13.0705 48.0141 12.9157 47.9391 12.7555C46.6393 10.0294 45.345 7.3006 44.0506 4.57179C43.9755 4.41703 43.8871 4.26769 43.7209 4.12921C43.6727 4.3057 43.6245 4.48219 43.5736 4.65868C41.7378 10.8331 39.8994 17.0103 38.0691 23.1847C36.4075 28.789 34.7514 34.3986 33.0872 40.0029C32.9639 40.421 32.854 40.8663 32.3261 40.9722C31.6722 41.1025 31.1496 40.7686 31.0317 40.0952C30.7771 38.6534 30.5413 37.2089 30.3001 35.7671C29.9731 33.8257 29.6462 31.8816 29.3192 29.9402C28.9307 27.6431 28.5421 25.346 28.1508 23.049C28.1133 22.8345 28.0543 22.6227 27.9873 22.343V22.3376Z" fill="white"/>
<path d="M50.4192 31C48.3837 28.9544 46.3701 26.9584 44.3865 24.932C42.548 23.0542 42.6821 20.302 43.946 18.5919C44.838 17.3849 46.4494 16.7168 47.7517 17.1154C48.2387 17.2639 48.6874 17.5664 49.1196 17.8523C49.4671 18.0832 49.7653 18.3884 50.0854 18.6634C50.5204 19.0373 50.4055 19.106 50.8897 18.6716C51.2126 18.3829 51.5436 18.108 51.8801 17.8358C53.8828 16.2164 56.4983 17.1484 57.4559 19.2737C58.3369 21.2258 58.1864 23.1064 56.7227 24.7533C56.0196 25.5452 55.2562 26.2793 54.5039 27.0271C53.2755 28.2451 52.0334 29.4521 50.7967 30.6618C50.6846 30.7718 50.5642 30.8708 50.4192 31Z" fill="white"/>
</svg>
