<svg width="39" height="41" viewBox="0 0 39 41" fill="none" xmlns="http://www.w3.org/2000/svg">
<path d="M36 24.808C36 29.9228 36 35.0377 36 40.1526C36 40.6895 35.6893 41 35.1264 41C32.4365 41 29.7467 41 27.0542 41C26.9559 41 26.855 40.9975 26.7568 40.9924C26.2523 40.9695 26.0186 40.7353 26.0186 40.2595C26.0186 32.9587 26.0186 25.6554 26 18.3546C26 17.8151 26.1859 17.4207 26.5682 17.0695C27.6543 16.0796 28.7403 15.0897 29.8263 14.0973C31.5284 12.545 33.2252 10.9927 34.9299 9.44552C35.0945 9.29538 35.2777 9.1427 35.4796 9.05363C35.7929 8.91876 35.9655 9.04346 35.9788 9.36918C35.9894 9.63383 35.9814 9.89848 35.9814 10.1606C35.9814 15.0439 35.9814 19.9247 35.9814 24.808C35.9867 24.808 35.992 24.808 35.9947 24.808H36Z" fill="white"/>
<path d="M19.3237 25.2988C19.4665 25.1694 19.6069 25.06 19.7306 24.9307C20.761 23.8465 21.7842 22.7573 22.8146 21.6706C23.0026 21.4742 23.1929 21.2777 23.4023 21.1036C23.6427 20.9022 23.8949 21.0042 23.9473 21.3249C23.9853 21.5587 23.9996 21.7974 23.9996 22.0337C23.9996 28.0217 23.9996 34.0098 23.9996 39.9978C23.9996 40.0899 24.002 40.1844 23.9949 40.2764C23.9639 40.6718 23.7069 40.9528 23.3286 40.9702C22.9431 40.9876 22.5576 40.9702 22.1745 40.9726C20.1899 40.9826 18.2029 40.9925 16.2184 41C16.0113 41 15.8019 41 15.5973 40.9702C15.2356 40.9179 15 40.627 15 40.249C15 34.1167 15 27.9844 15 21.8497C15 21.4095 15.257 21.2479 15.6282 21.4667C15.771 21.5512 15.8971 21.6781 16.0137 21.8024C16.9774 22.8245 17.9364 23.8515 18.9002 24.8735C19.031 25.0128 19.1714 25.1421 19.3309 25.2988H19.3237Z" fill="white"/>
<path d="M33.5011 3.27568C33.1278 2.9074 32.7773 2.55642 32.4242 2.20791C32.3788 2.16342 32.336 2.1214 32.2906 2.07691C31.8467 1.62212 31.8845 1.43674 32.4974 1.29833C33.9928 0.957236 35.4958 0.635916 36.9964 0.309653C37.4553 0.210786 37.9168 0.116861 38.3783 0.0303523C38.913 -0.0685152 39.0693 0.0624843 38.9735 0.596369C38.8398 1.35271 38.6633 2.10163 38.4994 2.85302C38.2321 4.07651 37.9572 5.29752 37.6899 6.51854C37.6066 6.89918 37.3368 7.00546 37.0241 6.73852C36.6458 6.4172 36.2801 6.07363 35.9397 5.71277C35.7178 5.47548 35.5791 5.50514 35.3597 5.71771C30.1722 10.8094 24.9772 15.8937 19.7846 20.9804C19.3635 21.3932 19.3181 21.3932 18.8843 20.9705C16.9223 19.0451 14.9629 17.1196 13.0008 15.1966C12.8924 15.0904 12.7764 14.989 12.6327 14.8555C12.1081 15.3647 11.6037 15.8541 11.1019 16.3435C8.25218 19.1242 5.40499 21.9073 2.55529 24.6879C2.12405 25.1081 1.97779 25.1032 1.54655 24.678C1.10522 24.2405 0.658852 23.8055 0.230135 23.3557C-0.0800537 23.0319 -0.07501 23.0171 0.235179 22.713C3.80109 19.2107 7.36953 15.7132 10.938 12.2133C11.3742 11.7857 11.808 11.3532 12.2594 10.9404C12.5822 10.6463 12.6528 10.6388 12.9655 10.9404C14.1483 12.0749 15.3235 13.2143 16.4911 14.3637C17.341 15.1991 18.1732 16.0543 19.0155 16.8972C19.3055 17.1863 19.3105 17.1814 19.598 16.9021C23.9684 12.6211 28.3363 8.3377 32.7067 4.05673C32.9664 3.80215 33.2237 3.54757 33.4985 3.27568H33.5011Z" fill="white"/>
<path d="M12 29.8476C12 33.3109 12 36.7741 12 40.2374C12 40.8098 11.8414 40.9963 11.3079 40.9989C8.77251 41.0015 6.23954 40.9989 3.70417 40.9963C3.23554 40.9963 3.01685 40.7529 3.01685 40.2736C3.01445 36.37 3.02166 32.4664 3.00003 28.5628C2.99763 27.9697 3.14662 27.5138 3.55036 27.1071C4.82646 25.8223 6.08573 24.5194 7.34981 23.2216C8.64994 21.8876 9.95248 20.5536 11.2526 19.2196C11.3103 19.16 11.368 19.0797 11.4377 19.0616C11.5866 19.0201 11.7501 18.9787 11.8919 19.0124C11.9471 19.0253 11.9904 19.2429 11.9928 19.3672C11.9976 22.8616 11.9976 26.3585 11.9976 29.8528L12 29.8476Z" fill="white"/>
</svg>
