<svg width="49" height="41" viewBox="0 0 49 41" fill="none" xmlns="http://www.w3.org/2000/svg">
<path d="M11.5254 26.8472C12.3565 26.2413 13.1458 25.6354 13.9602 25.0712C17.201 22.831 20.6308 20.966 24.4164 19.7986C26.8511 19.0482 29.3387 18.8175 31.8624 19.0871C34.2555 19.3428 36.5068 20.1127 38.6303 21.2411C42.5075 23.3062 45.6733 26.1996 48.3749 29.6294C48.6083 29.924 48.5277 30.1686 48.3193 30.4354C46.1736 33.1704 43.686 35.5357 40.7899 37.4701C38.3356 39.11 35.6813 40.2773 32.7629 40.7554C29.9001 41.2251 27.0679 41.0167 24.2913 40.1467C20.3668 38.9154 16.8063 36.9754 13.4766 34.5907C12.829 34.1265 12.1981 33.6429 11.5227 33.1398C11.4282 33.2871 11.3392 33.4122 11.2586 33.5456C9.77441 36.0221 7.87885 38.0983 5.34403 39.5241C4.10997 40.2162 2.77864 40.6942 1.37503 40.9277C1.09153 40.975 0.796915 40.9722 0.510636 40.9638C0.204901 40.9555 0.0881654 40.7471 0.221577 40.4636C0.313298 40.2662 0.430033 40.0772 0.53843 39.8854C1.90312 37.5118 2.91483 34.9992 3.39288 32.2949C3.70696 30.5105 3.65137 28.7205 3.25114 26.9501C2.69525 24.4958 1.75581 22.1945 0.49118 20.021C0.327195 19.7403 -0.00355519 19.404 0.274386 19.126C0.44393 18.9565 0.880298 18.9898 1.18603 19.0315C3.10105 19.2872 4.83818 20.0099 6.41688 21.1189C8.44863 22.5475 10.0385 24.3791 11.3059 26.5026C11.3698 26.611 11.4448 26.7138 11.5282 26.8444L11.5254 26.8472ZM38.3718 28.1897C38.4218 26.7889 37.235 25.3602 35.4256 25.2769C33.9136 25.2074 32.4989 26.6471 32.4933 28.1702C32.4878 29.7461 33.8469 31.1303 35.3978 31.1303C37.0432 31.1303 38.3579 29.8295 38.3718 28.1897Z" fill="white"/>
<path d="M48.1612 10.2235C48.4197 11.2324 47.8666 11.7716 47.0856 12.2691C44.9149 13.6422 42.6802 13.7839 40.3316 12.7972C39.2282 12.3331 38.2637 11.6632 37.391 10.86C37.1464 10.6349 36.9852 10.6571 36.7517 10.8655C35.4982 11.9884 34.0863 12.8139 32.4075 13.1335C30.9372 13.4143 29.5114 13.2364 28.0939 12.8C26.7014 12.3692 25.4618 11.6716 24.3278 10.7738C24.111 10.6015 23.9748 10.6126 23.7663 10.7738C22.3627 11.8661 20.8202 12.6888 19.0691 13.0641C17.3987 13.4226 15.7533 13.3364 14.1635 12.6805C13.1184 12.2497 12.1762 11.6354 11.3479 10.8711C11.0783 10.6237 10.9171 10.6543 10.6642 10.8878C9.44958 12.0134 8.06265 12.8612 6.44226 13.2531C4.09643 13.8201 2.05635 13.1391 0.263626 11.6076C0.121876 11.4854 0.0329352 11.238 0.0190381 11.0434C-0.0143148 10.5126 0.00514106 9.97891 0.0106999 9.44526C0.0162587 8.91996 0.277523 8.75319 0.752803 8.96721C1.82288 9.4536 2.9263 9.80659 4.10477 9.92332C6.50896 10.1596 8.59352 9.40635 10.4502 7.91659C10.5864 7.80819 10.717 7.69424 10.8476 7.58028C11.3118 7.16615 11.1756 7.13001 11.7565 7.53025C13.2768 8.58087 14.9111 9.373 16.7483 9.68707C19.1775 10.1012 21.3288 9.45916 23.2299 7.91937C23.3828 7.79429 23.5356 7.66922 23.6829 7.53859C24.0054 7.25509 24.1971 7.24953 24.5251 7.54137C25.2811 8.21398 26.101 8.7921 27.0377 9.19234C28.8054 9.94556 30.6092 9.97057 32.4381 9.45916C33.8222 9.07282 35.0869 8.43634 36.2709 7.63031C36.9157 7.19116 36.9268 7.19394 37.4994 7.70257C39.2365 9.24515 41.2488 10.0428 43.5863 9.96223C44.951 9.91498 46.2184 9.49529 47.4664 8.9811C48.0028 8.75875 48.0862 8.81434 48.1251 9.39246C48.1445 9.6704 48.1529 9.94834 48.164 10.2263L48.1612 10.2235Z" fill="white"/>
<path d="M0.00774724 2.85794C0.00774724 2.54665 0.00218842 2.23257 0.00774724 1.92128C0.0160855 1.56273 0.1356 1.4599 0.488585 1.54328C0.710938 1.59609 0.927732 1.68781 1.13897 1.77953C2.54813 2.38822 4.00454 2.74676 5.55545 2.63837C7.55107 2.49662 9.25485 1.69337 10.7363 0.381485C11.2616 -0.0854562 11.3088 -0.0965738 11.8953 0.300882C13.1961 1.18473 14.583 1.88515 16.12 2.26315C18.9467 2.958 21.4259 2.27704 23.5994 0.375926C23.6605 0.323117 23.7245 0.270308 23.78 0.211941C24.0107 -0.0215297 24.2248 0.00348495 24.4805 0.195264C25.1003 0.659426 25.7062 1.15416 26.3732 1.53772C28.5217 2.77456 30.773 2.7829 33.0744 2.00466C34.2334 1.61276 35.3063 1.05132 36.3152 0.364808C36.3736 0.325897 36.4291 0.284205 36.4875 0.245294C36.9989 -0.0882356 37.0045 -0.0937944 37.4631 0.303661C38.6805 1.35984 40.034 2.16031 41.635 2.46604C43.5583 2.83293 45.4094 2.55776 47.191 1.76285C47.38 1.67947 47.5746 1.59887 47.7747 1.56273C48.0054 1.51826 48.1638 1.62944 48.1666 1.88237C48.1722 2.5661 48.1916 3.24984 48.1583 3.93079C48.1499 4.092 47.9887 4.281 47.847 4.39495C45.4734 6.31275 42.8996 6.63794 40.1285 5.34829C39.1669 4.90081 38.3025 4.30601 37.5242 3.58615C37.1824 3.27207 37.1157 3.26095 36.771 3.56669C35.6009 4.61175 34.2723 5.37609 32.7464 5.72907C30.8342 6.17378 28.972 5.8875 27.1848 5.11482C26.1398 4.66178 25.1475 4.11701 24.3109 3.33044C24.1164 3.147 24.0052 3.28319 23.8718 3.39159C22.8601 4.19762 21.7622 4.8619 20.5448 5.30382C17.2206 6.51287 14.2022 5.98478 11.5312 3.63062C11.0865 3.23872 11.0893 3.2415 10.6362 3.63062C9.23817 4.83688 7.70394 5.78466 5.83895 6.04592C3.67935 6.34888 1.83104 5.62623 0.207865 4.24487C0.0966884 4.15037 0.0327619 3.95025 0.0188649 3.7946C-0.00892923 3.48331 0.0105267 3.16923 0.0105267 2.85794H0.0133061H0.00774724Z" fill="white"/>
</svg>
