<svg width="31" height="42" viewBox="0 0 31 42" fill="none" xmlns="http://www.w3.org/2000/svg">
<path d="M20.4 7.5786C21.7762 6.23855 23.1356 4.91297 24.5431 3.544C24.4178 3.52713 24.3503 3.51026 24.2804 3.51026C23.1886 3.50062 22.0992 3.48616 21.0074 3.49339C20.7085 3.49339 20.6025 3.39457 20.6049 3.0933C20.617 2.1919 20.6145 1.2905 20.5977 0.391516C20.5929 0.116759 20.6893 0.00589149 20.9568 0.013122C21.1665 0.0179423 21.3762 0.00107118 21.5858 0.00107118C24.278 0.00107118 26.9701 -0.00133897 29.6623 0.00107118C30.6046 0.00107118 30.6046 0.00589146 30.607 0.943442C30.6095 3.78501 30.6119 6.629 30.6143 9.47057C30.6143 9.97429 30.6143 9.98393 30.1009 9.98393C29.2212 9.98634 28.3391 9.96947 27.4594 9.97911C27.1822 9.98152 27.093 9.87066 27.0955 9.60554C27.1003 8.63425 27.093 7.66295 27.0882 6.69407C27.0882 6.61695 27.081 6.54223 27.0786 6.49162C25.753 7.82202 24.425 9.15484 23.085 10.4997C23.8225 11.6325 24.4973 12.893 24.8371 14.2957C25.7313 17.9905 25.3216 21.4997 23.1621 24.6883C21.2074 27.5757 18.5033 29.3929 15.0495 30.0412C14.8374 30.0822 14.7482 30.1642 14.7506 30.3907C14.7651 31.4415 14.7675 32.4924 14.7675 33.5432C14.7675 33.7722 14.929 33.7408 15.0567 33.7432C15.587 33.7553 16.1172 33.7553 16.6474 33.7601C17.2379 33.7649 17.8284 33.777 18.4189 33.777C18.6045 33.777 18.6912 33.8421 18.6888 34.0397C18.684 35.0905 18.684 36.1413 18.6937 37.1898C18.6961 37.4717 18.5683 37.5465 18.308 37.5465C17.1969 37.5392 16.0859 37.5441 14.9748 37.5465C14.9266 37.5465 14.876 37.5537 14.7916 37.5585C14.782 37.6646 14.7651 37.7706 14.7651 37.8742C14.7651 38.8648 14.7651 39.8554 14.7651 40.846C14.7651 41.2436 14.7458 41.275 14.3433 41.2774C13.3214 41.2846 12.3019 41.2726 11.28 41.2774C11.0511 41.2774 10.9932 41.1882 10.9956 40.9737C11.0053 39.9518 10.9908 38.9323 11.0125 37.9104C11.0197 37.5947 10.9137 37.5296 10.6196 37.5344C9.53989 37.5513 8.45773 37.5344 7.37798 37.5465C7.12491 37.5489 7.04055 37.4597 7.04055 37.2235C7.04296 36.1823 7.04055 35.1411 7.03814 34.0999C7.03814 33.8372 7.14901 33.736 7.42377 33.7384C8.50352 33.7553 9.58568 33.7456 10.6654 33.7625C10.9233 33.7673 11.0125 33.6999 11.0101 33.4275C10.9956 32.4177 11.0028 31.4054 11.0101 30.3955C11.0101 30.2292 10.9956 30.116 10.7859 30.087C7.72504 29.6869 5.21125 28.2529 3.17467 25.9705C1.30439 23.8881 0.301762 21.4201 0.0486956 18.6292C-0.488769 12.7243 3.47835 6.96642 9.20246 5.44079C13.0659 4.41165 16.6715 5.03347 19.9831 7.29661C20.1156 7.38579 20.2482 7.47496 20.4 7.5786ZM21.8678 17.5759C21.8726 12.6496 17.8212 8.39082 12.6562 8.386C7.40931 8.38118 3.36748 12.6664 3.43496 17.7398C3.50245 22.7047 7.53705 26.8285 12.6562 26.8285C17.9031 26.8285 21.9305 22.4203 21.8678 17.5759Z" fill="white"/>
<path d="M12.8132 18.6198C14.6136 18.6198 16.4164 18.6246 18.2168 18.6149C18.5229 18.6149 18.6073 18.7162 18.6024 19.0126C18.588 19.7839 18.6024 20.5527 18.6145 21.324C18.6169 21.536 18.5518 21.6373 18.3253 21.6349C17.8553 21.6276 17.3853 21.6397 16.9153 21.6397C13.852 21.6445 10.7887 21.6469 7.72782 21.6517C7.22329 21.6517 6.97103 21.4019 6.97103 20.9022C6.97103 20.2514 6.98308 19.6007 6.96621 18.9499C6.95898 18.6969 7.05297 18.6101 7.28917 18.6149C8.04837 18.6222 8.80997 18.6246 9.56917 18.6246C10.6513 18.6246 11.7311 18.6246 12.8132 18.6246C12.8132 18.6246 12.8132 18.6222 12.8132 18.6198Z" fill="white"/>
<path d="M12.7866 16.7734C10.9958 16.7734 9.20509 16.7758 7.41435 16.7734C6.97088 16.7734 6.97088 16.759 6.97088 16.3275C6.97088 15.5876 6.97811 14.8477 6.96606 14.1078C6.96124 13.8571 7.02872 13.7535 7.30348 13.7559C10.9139 13.7631 14.5267 13.7607 18.1371 13.7631C18.5758 13.7631 18.5854 13.7704 18.5926 14.2162C18.6071 14.9851 18.5999 15.7563 18.6167 16.5276C18.6216 16.771 18.4818 16.7734 18.3082 16.7734C16.4669 16.7734 14.6279 16.7734 12.7866 16.7734Z" fill="white"/>
</svg>
