<svg width="41" height="41" viewBox="0 0 41 41" fill="none" xmlns="http://www.w3.org/2000/svg">
<path d="M28.5071 27.4075C28.1684 27.4075 27.8587 27.4075 27.5491 27.4075C22.6696 27.4075 17.7876 27.4003 12.9081 27.4075C12.642 27.4075 12.5694 27.3422 12.5718 27.0737C12.5864 25.7576 12.5791 24.4416 12.5767 23.128C12.5767 22.7409 12.5743 22.7385 12.9734 22.7385C17.3618 22.7385 21.7503 22.7385 26.1387 22.7385C26.8427 22.7385 27.5442 22.753 28.2482 22.7385C28.4998 22.7337 28.5409 22.8111 28.5385 23.0481C28.524 24.3932 28.5288 25.7383 28.5264 27.0858C28.5264 27.1826 28.5167 27.2793 28.5071 27.41V27.4075Z" fill="white"/>
<path d="M20.561 13.64C23.1012 13.64 25.6437 13.6449 28.1839 13.6352C28.4428 13.6352 28.5274 13.6981 28.525 13.9666C28.5105 15.2633 28.5129 16.5576 28.5202 17.8543C28.5202 18.0526 28.4573 18.1155 28.2613 18.1107C27.7992 18.101 27.3372 18.1107 26.8751 18.1107C22.2157 18.1107 17.554 18.1107 12.8946 18.1228C12.6406 18.1228 12.5728 18.0454 12.5753 17.7962C12.5874 16.5213 12.5874 15.244 12.5753 13.969C12.5728 13.7053 12.6406 13.6279 12.9091 13.6279C15.4614 13.6376 18.0112 13.6328 20.5634 13.6328V13.6376L20.561 13.64Z" fill="white"/>
<path d="M0 20.5761C2.45306 18.1182 4.88193 15.6869 7.33258 13.2314V27.8555C7.30597 27.8724 7.28177 27.8918 7.25516 27.9087C4.8142 25.4435 2.37565 22.976 0 20.5761Z" fill="white"/>
<path d="M13.1284 33.6973H27.8807C27.7936 33.7989 27.7597 33.8424 27.721 33.8835C25.401 36.2084 23.081 38.5308 20.7658 40.8629C20.5771 41.0516 20.4489 41.0395 20.2699 40.8629C18.9708 39.5614 17.6668 38.2671 16.3677 36.9704C15.3734 35.9762 14.384 34.9794 13.3921 33.9827C13.3171 33.9053 13.2445 33.8255 13.1308 33.7021L13.1284 33.6973Z" fill="white"/>
<path d="M20.5463 0C22.9752 2.40468 25.4355 4.84323 27.8958 7.27936C27.8789 7.30597 27.8619 7.33016 27.8474 7.35677H13.1968C15.6353 4.9158 18.0642 2.48693 20.5487 0H20.5463Z" fill="white"/>
<path d="M33.7017 13.2383C36.133 15.6938 38.557 18.142 40.9665 20.5757C38.6126 22.9393 36.1741 25.3923 33.7017 27.8768V13.2383Z" fill="white"/>
</svg>
