<svg width="79" height="41" viewBox="0 0 79 41" fill="none" xmlns="http://www.w3.org/2000/svg">
<path d="M25.2064 32.2274C24.9247 31.9608 24.6864 31.7387 24.4516 31.5166C23.9858 31.0797 23.5091 30.6577 23.0576 30.2097C22.4834 29.6396 22.6748 28.8843 23.4404 28.6659C27.1204 27.6293 30.8004 26.5964 34.4803 25.5524C34.9209 25.4265 35.347 25.3377 35.6396 25.8078C35.7479 25.9856 35.8454 26.2373 35.8165 26.4335C35.2568 30.1208 34.6789 33.8045 34.1084 37.4918C34.0759 37.7028 34.065 37.9213 34.0036 38.1286C33.9278 38.3877 33.8664 38.7987 33.7039 38.8542C33.2597 39.0097 32.7685 39.18 32.3244 38.7209C31.7538 38.136 31.1218 37.6103 30.5259 37.0476C30.3489 36.881 30.2189 36.8106 29.9878 36.9809C27.2432 38.9875 24.1808 40.1648 20.8258 40.4424C16.0841 40.8348 11.6169 39.9537 7.68415 37.0587C3.69722 34.1229 1.15845 30.1986 0.38562 25.1859C-0.296924 20.7507 -0.138025 16.3489 1.38596 12.0914C3.65028 5.75705 8.11751 1.97716 14.4915 0.525923C16.6114 0.0409423 18.7746 -0.155271 20.9306 0.137198C25.2497 0.722136 29.1283 2.34367 32.393 5.39424C35.3615 8.17085 37.7089 11.4435 39.7168 14.9754C41.2227 17.6298 42.5553 20.3805 44.0323 23.0535C45.7008 26.0744 47.7304 28.814 50.5183 30.8502C52.8873 32.5828 55.4225 33.9674 58.3658 34.419C63.8947 35.2705 69.7162 32.4865 71.2872 25.6116C72.0239 22.3908 72.0383 19.1403 71.2619 15.9268C70.164 11.3695 67.2352 8.6188 62.898 7.36008C61.3921 6.92322 59.8536 6.63075 58.2827 6.75663C56.2387 6.91952 54.3283 7.59331 52.5443 8.6077C49.9766 10.07 48.0048 12.2062 46.2244 14.5496C45.9391 14.9273 45.6683 15.3123 45.3758 15.6825C44.9027 16.2785 44.1551 16.2008 43.7904 15.5344C43.0825 14.2498 42.4217 12.9355 41.6452 11.699C41.1613 10.9326 41.2624 10.3292 41.7933 9.71464C42.7214 8.64842 43.6098 7.53778 44.6138 6.55301C47.0767 4.13181 49.861 2.22891 53.169 1.20712C59.5106 -0.751316 65.4332 0.233454 70.8538 4.03555C74.5446 6.62335 76.6536 10.3736 77.6215 14.8236C78.2029 17.4965 78.1379 20.1991 77.9862 22.9017C77.8092 26.0078 77.1123 28.9917 75.6099 31.7054C72.9303 36.5515 68.9217 39.6502 63.5517 40.5979C59.1639 41.3717 54.9169 40.6608 50.8542 38.7061C46.0186 36.3775 42.2917 32.7975 39.4784 28.2179C38.0556 25.8967 36.8602 23.4274 35.5746 21.0173C33.9386 17.9519 32.1727 14.9754 29.9264 12.3284C27.9257 9.97379 25.6145 8.06348 22.6459 7.13425C18.5543 5.85331 14.701 6.42714 11.133 8.82613C9.21175 10.1182 7.95861 11.9729 7.21467 14.1905C6.06265 17.6335 5.80264 21.1802 6.68381 24.6824C7.93694 29.6729 11.2124 32.6716 16.113 33.7082C19.2513 34.3709 22.2848 33.9711 25.2064 32.2237V32.2274Z" fill="white"/>
</svg>
