<svg width="41" height="41" viewBox="0 0 41 41" fill="none" xmlns="http://www.w3.org/2000/svg">
<path d="M0.00545164 28.9805C0.00545164 27.173 0.00545164 25.3681 0.00545164 23.5607C0.00545164 23.0707 0.300772 22.7532 0.691196 22.5257C1.92003 21.8108 3.15387 21.1058 4.38521 20.3933C6.10207 19.4034 7.81143 18.3959 9.54331 17.4335C9.86616 17.2535 9.93874 17.0685 9.93624 16.741C9.92372 13.3861 9.93624 10.0338 9.91121 6.67892C9.9062 6.08895 10.134 5.71896 10.617 5.44147C13.6328 3.71155 16.651 1.98412 19.6618 0.2442C20.2474 -0.0932852 20.793 -0.0732861 21.3636 0.2567C24.3594 1.98162 27.3527 3.70655 30.3559 5.41648C30.894 5.72396 31.1268 6.13895 31.1243 6.75392C31.1067 10.1188 31.1142 13.4811 31.1017 16.846C31.1017 17.116 31.1793 17.271 31.4246 17.4085C34.3528 19.0809 37.2759 20.7658 40.1991 22.4507C40.3518 22.5382 40.5044 22.6332 40.6371 22.7457C40.8748 22.9482 40.9975 23.1907 40.9975 23.5282C40.9875 27.1305 40.98 30.7329 41 34.3377C41.0025 34.8802 40.7998 35.2177 40.3493 35.4702C39.3282 36.0476 38.3146 36.6376 37.2985 37.2226C35.2913 38.375 33.2691 39.505 31.2819 40.6899C30.6562 41.0624 30.1457 41.0574 29.5275 40.6949C26.6169 38.99 23.6887 37.3151 20.773 35.6202C20.5728 35.5027 20.4301 35.5502 20.26 35.6477C18.0926 36.8976 15.9252 38.1451 13.7579 39.3925C12.947 39.8575 12.1261 40.305 11.3303 40.7899C10.8547 41.0799 10.4218 41.0599 9.95626 40.7899C8.99772 40.2275 8.03417 39.6775 7.07063 39.1225C4.98336 37.9226 2.89859 36.7151 0.803819 35.5277C0.238204 35.2102 -0.0120674 34.7827 0.000446207 34.1202C0.0304788 32.4078 0.0104571 30.6929 0.0104571 28.9805H0.00545164ZM39.5609 24.5856C39.1705 24.7981 38.8426 24.9706 38.5198 25.1531C36.0997 26.5406 33.682 27.9305 31.2569 29.3154C31.0692 29.4229 31.0091 29.5504 31.0091 29.7629C31.0166 32.7728 31.0141 35.7827 31.0141 38.79C31.0141 38.8875 31.0241 38.9875 31.0291 39.1175C31.1343 39.07 31.2093 39.04 31.2794 39C33.9073 37.4976 36.5326 35.9851 39.1705 34.4952C39.4783 34.3202 39.5709 34.1277 39.5709 33.7877C39.5584 30.9954 39.5609 28.2055 39.5609 25.4131C39.5609 25.1556 39.5609 24.9006 39.5609 24.5806V24.5856ZM1.51209 24.5981C1.49957 24.7706 1.48706 24.8831 1.48706 24.9981C1.48706 27.998 1.48706 30.9954 1.48206 33.9952C1.48206 34.2052 1.54963 34.3327 1.73733 34.4402C4.21502 35.8552 6.68521 37.2801 9.16039 38.7C9.41817 38.8475 9.67846 38.985 9.96877 39.1425C9.98379 39.045 9.9963 38.9975 9.9963 38.95C9.9963 37.6126 9.9913 36.2726 9.98879 34.9352C9.98879 33.1928 9.9938 31.4478 9.98379 29.7054C9.98379 29.5879 9.90621 29.4129 9.8111 29.3579C7.40599 27.963 4.99587 26.5806 2.58325 25.1956C2.24538 25.0006 1.90251 24.8156 1.50959 24.5981H1.51209ZM21.9918 23.2982C22.0594 23.3507 22.112 23.3982 22.172 23.4332C24.8174 24.9531 27.4628 26.4706 30.1056 27.9955C30.3209 28.1205 30.4886 28.1205 30.7063 27.9955C33.2666 26.5181 35.8344 25.0481 38.3997 23.5782C38.5398 23.4982 38.6725 23.4082 38.8551 23.2957C38.0493 22.8382 37.291 22.4107 36.5376 21.9783C34.593 20.8633 32.6484 19.7509 30.7088 18.6284C30.5011 18.5084 30.3384 18.5134 30.1357 18.6284C29.1121 19.2209 28.0809 19.8009 27.0548 20.3883C25.373 21.3533 23.6962 22.3207 21.9943 23.2982H21.9918ZM29.6602 16.371V7.41639C27.0623 8.92132 24.5146 10.3988 21.9243 11.8987C24.5221 13.3986 27.0598 14.8661 29.6602 16.3685V16.371ZM19.0962 34.7277C16.4834 33.2178 13.9281 31.7453 11.3227 30.2404V39.16C13.9306 37.6726 16.4909 36.2126 19.0962 34.7277ZM19.0536 11.9437C16.4583 10.4538 13.898 8.98632 11.2977 7.49389V16.4235C13.8955 14.9236 16.4408 13.4511 19.0536 11.9437ZM19.7744 24.5281C17.1791 26.0256 14.6363 27.493 12.036 28.9955C14.6363 30.4954 17.1841 31.9678 19.7744 33.4603V24.5281ZM19.7744 13.1161C17.1741 14.6186 14.6313 16.086 12.036 17.5835C14.6338 19.0834 17.1791 20.5483 19.7744 22.0458V13.1161ZM21.2185 22.0833C23.8163 20.5808 26.3466 19.1209 28.9269 17.6284C26.329 16.146 23.7913 14.6986 21.2185 13.2311V22.0833Z" fill="white"/>
</svg>
