<svg width="42" height="41" viewBox="0 0 42 41" fill="none" xmlns="http://www.w3.org/2000/svg">
<path d="M11.9516 22.1199C10.3372 22.1199 8.72022 22.1331 7.10585 22.1146C5.6603 22.0988 4.44424 21.5554 3.47351 20.466C1.9752 18.7804 1.88287 16.0634 3.29677 14.3013C3.48142 14.0691 3.46559 13.9794 3.23346 13.8027C1.71933 12.6447 1.11789 11.0831 1.48983 9.2392C1.85649 7.41116 2.98814 6.19774 4.83464 5.73084C5.14064 5.65434 5.46509 5.62796 5.78164 5.62532C6.05861 5.62532 6.15621 5.52508 6.19314 5.25074C6.42528 3.48865 7.27731 2.08267 8.73605 1.07764C12.2866 -1.36502 17.4779 0.502587 18.2271 5.0872C18.4117 6.22412 18.4012 7.41643 17.8472 8.50851C17.7628 8.67733 17.7734 8.74855 17.9791 8.80395C20.0947 9.38955 21.5824 10.7111 22.4503 12.7133C24.0462 16.3984 22.0203 20.7588 18.1875 21.864C17.6045 22.0328 16.982 22.1067 16.3727 22.1199C14.9007 22.1568 13.4288 22.1304 11.9569 22.1304C11.9569 22.1252 11.9569 22.1199 11.9569 22.1146L11.9516 22.1199Z" fill="white"/>
<path d="M20.8391 40.9948C14.2999 40.9948 7.7606 40.9948 1.22133 40.9948C0.912701 40.9948 0.606709 40.9816 0.298079 40.9737C0.097601 40.9684 0.0079136 40.8761 0.0079136 40.665C0.0131893 39.8737 0.0105515 39.0823 0 38.291C0 38.0852 0.0659466 37.9823 0.276976 37.9797C0.429972 37.9797 0.582968 37.9586 0.735964 37.9586C13.6721 37.956 26.6055 37.9533 39.5416 37.9507C40.1008 37.9507 40.6627 37.9533 41.2219 37.9507C41.5332 37.9507 41.7073 38.0509 41.6994 38.4097C41.6835 39.1008 41.7099 39.7946 41.6994 40.4857C41.6915 40.9499 41.6598 40.9737 41.2087 40.9895C40.8131 41.0027 40.4174 41.0001 40.0217 41.0001C33.6249 41.0001 27.228 41.0001 20.8339 41.0001L20.8391 40.9948Z" fill="white"/>
<path d="M20.8176 35.9818C14.2889 35.9818 7.76021 35.9818 1.23413 35.9818C0.925498 35.9818 0.619505 35.9686 0.310875 35.9607C0.118311 35.9554 0.0101585 35.8789 0.0101585 35.66C0.0154343 34.8581 0.0127964 34.0562 0.00488281 33.2542C0.00488281 33.059 0.078743 32.972 0.271307 32.9667C0.434855 32.9641 0.60104 32.943 0.764588 32.943C13.7007 32.9403 26.6368 32.9377 39.5702 32.9351C40.1295 32.9351 40.6913 32.9403 41.2505 32.9351C41.5539 32.9351 41.7122 33.0406 41.7043 33.3809C41.6858 34.1168 41.6963 34.8528 41.7043 35.5888C41.7043 35.8552 41.5829 35.966 41.3244 35.9686C40.8839 35.9686 40.446 35.9818 40.0055 35.9818C33.6086 35.9818 27.2118 35.9818 20.8176 35.9818Z" fill="white"/>
<path d="M29.911 15.5801C31.1824 15.5721 32.2613 15.9494 33.2321 16.6167C33.5249 16.8172 33.699 16.7486 33.9496 16.5772C35.4584 15.5378 37.1097 15.3479 38.8111 15.9362C39.4126 16.1446 39.9375 16.5956 40.4783 16.9623C40.6972 17.11 40.7711 17.6297 40.5864 17.7642C40.4361 17.8724 40.138 17.9409 39.9955 17.8618C38.8032 17.205 37.6004 17.3606 36.3922 17.7642C35.6114 18.0254 34.9414 18.487 34.303 18.9935C33.5723 19.5738 33.5565 19.5791 32.8285 18.975C31.8683 18.1784 30.7947 17.6402 29.5522 17.4714C28.7899 17.3685 28.0434 17.4055 27.3311 17.7563C27.1887 17.8275 27.0093 17.875 26.8563 17.8539C26.7376 17.8381 26.5635 17.722 26.5371 17.6191C26.4686 17.3369 26.5002 17.0704 26.7587 16.8462C27.6873 16.039 28.7319 15.5431 29.9083 15.5801H29.911Z" fill="white"/>
<path d="M25.3812 5.16417C26.3335 5.17736 27.1169 5.40422 27.8423 5.821C28.1088 5.974 28.2855 5.96872 28.5387 5.7656C30.0133 4.57329 32.0234 4.5047 33.556 5.5704C33.6984 5.67064 33.9015 5.77352 33.9411 5.91332C34.0044 6.13227 33.9965 6.40133 33.9253 6.61763C33.9015 6.69677 33.5823 6.76272 33.4452 6.7126C31.7042 6.05049 30.2903 6.70996 28.9977 7.80467C28.2222 8.4615 28.2407 8.49052 27.3913 7.92338C26.3836 7.25072 25.2994 6.84449 24.0728 7.01859C23.6798 7.07398 23.2947 7.23489 22.9201 7.37998C22.7038 7.46439 22.5402 7.46703 22.3951 7.28238C22.2422 7.09245 22.1999 6.89989 22.3767 6.68886C23.1891 5.71548 24.2074 5.17472 25.3812 5.1589V5.16417Z" fill="white"/>
<path d="M11.2131 27.0473C11.2131 26.1135 11.2105 25.1797 11.2131 24.2459C11.2131 23.779 11.2791 23.6972 11.7381 23.6893C12.4292 23.6787 13.1203 23.6972 13.8141 23.6972C14.0884 23.6972 14.2177 23.8238 14.2177 24.0982C14.2177 26.0528 14.2177 28.0075 14.2177 29.9621C14.2177 30.2286 14.1069 30.3684 13.822 30.3657C13.086 30.3605 12.3501 30.3605 11.6141 30.3684C11.3134 30.371 11.2079 30.2286 11.2105 29.9437C11.2158 28.9782 11.2105 28.0101 11.2105 27.0447L11.2131 27.0473Z" fill="white"/>
</svg>
