<svg width="42" height="41" viewBox="0 0 42 41" fill="none" xmlns="http://www.w3.org/2000/svg">
<path d="M42 18.4113C41.9188 21.6128 40.7798 24.3256 38.342 26.4243C37.8654 26.8346 37.8366 27.1613 37.9361 27.7415C38.5646 31.3742 37.7502 34.6175 35.1972 37.3722C33.5947 39.1023 31.6518 40.2313 29.3476 40.6625C26.9595 41.1068 24.6134 40.9239 22.3877 39.8497C22.0447 39.6851 21.6912 39.5283 21.377 39.3166C21.1256 39.1467 20.9371 39.1676 20.6962 39.3166C19.7797 39.8968 18.7952 40.3254 17.7452 40.6103C12.3406 42.0738 6.71357 39.3061 4.6057 34.1393C4.10296 32.9057 3.83849 31.6329 3.84897 30.2922C3.85682 29.2442 3.86468 28.204 4.14224 27.1822C4.17104 27.0802 4.10296 26.8999 4.01917 26.8267C2.4219 25.486 1.25407 23.8526 0.57065 21.8794C0.277382 21.0326 0.0888525 20.1676 0.0312463 19.2711C-0.112769 17.0261 0.225013 14.8805 1.37976 12.9204C3.30171 9.66656 6.1506 7.81099 9.91857 7.37976C10.0704 7.36146 10.2328 7.36669 10.3689 7.3092C10.492 7.25693 10.636 7.14977 10.6805 7.03478C11.5891 4.69832 13.1236 2.88194 15.2655 1.59088C17.1665 0.443559 19.2534 -0.131408 21.4765 0.0254011C26.0509 0.34686 29.3135 2.63105 31.1779 6.81263C31.4162 7.34578 31.7435 7.35101 32.1415 7.3876C33.723 7.53134 35.1946 8.02006 36.5484 8.82763C39.4784 10.5761 41.2485 13.1399 41.8246 16.5008C41.9319 17.1307 41.945 17.7736 42 18.4113ZM21.0497 13.4927C22.7386 10.2076 25.3754 8.25789 28.8998 7.48953C27.9362 4.87865 24.7129 2.08222 20.4919 2.33573C16.7632 2.55787 13.9274 5.33078 13.1812 7.49998C16.737 8.23437 19.3293 10.2494 21.0497 13.4927ZM16.2867 28.0629C16.0117 28.2014 15.852 28.2929 15.687 28.3635C12.8172 29.6023 9.92119 29.6519 6.99898 28.5542C6.32342 28.3007 6.31032 28.2955 6.21868 29.0377C5.97778 30.9665 6.40721 32.762 7.39961 34.4163C9.45248 37.8374 13.5504 39.5727 17.376 38.3574C17.9677 38.1693 18.5281 37.8818 19.1539 37.6204C16.6768 34.858 15.7551 31.7166 16.2867 28.0655V28.0629ZM10.0521 9.76065C7.77666 9.84689 4.42241 11.6737 2.99535 15.181C1.56567 18.6962 2.85919 22.653 5.16344 24.6654C7.01993 21.5135 9.7955 19.6788 13.4037 19.083C10.835 16.446 9.67243 13.3882 10.0521 9.76065ZM28.7506 19.0019C32.2907 19.6266 35.0401 21.4325 36.8338 24.5974C36.8809 24.5739 36.9018 24.5687 36.9176 24.553C40.4446 21.1241 40.5337 15.6907 37.1192 12.1938C35.7995 10.84 34.1865 10.0351 32.3326 9.70054C31.9634 9.63259 31.9503 9.66134 31.9687 10.0351C31.9896 10.4794 31.9922 10.9263 31.9896 11.3732C31.9765 13.4065 31.4031 15.2777 30.2928 16.9739C29.832 17.6795 29.2743 18.3198 28.7532 19.0019H28.7506ZM35.7969 28.3216C35.6083 28.3661 35.4434 28.3818 35.2915 28.4419C32.4007 29.5918 29.5152 29.584 26.6322 28.4236C26.3651 28.3164 26.0981 28.2067 25.8205 28.0917C26.3337 31.6643 25.3911 34.7796 23.0292 37.4662C25.6555 38.9873 29.1957 39.0788 32.042 37.0847C35.0611 34.9704 36.2603 32.025 35.7969 28.3164V28.3216ZM27.8053 21.2495C25.9095 21.2548 24.5715 21.5449 23.5896 22.0414C23.257 22.2087 23.2308 22.2688 23.4298 22.5903C25.3335 25.669 28.0514 27.2318 31.7225 26.994C32.7306 26.9287 33.6968 26.6751 34.6081 26.2256C34.8254 26.1185 34.9328 26.0061 34.7809 25.75C33.0737 22.8908 30.5652 21.3828 27.8079 21.2495H27.8053ZM21.0889 36.0733C22.4348 34.7169 23.2282 33.1122 23.5005 31.2801C23.8986 28.5908 23.1313 26.2256 21.3403 24.1845C20.9842 23.7794 20.9685 23.782 20.6229 24.208C18.824 26.4164 18.062 28.8992 18.6747 31.727C19.0387 33.4075 19.8556 34.8449 21.0889 36.0706V36.0733ZM7.23464 26.0296C7.39175 26.1315 7.50958 26.2335 7.64312 26.2936C9.4263 27.0855 11.2802 27.2763 13.1655 26.7954C15.4723 26.2047 17.2529 24.8588 18.515 22.8385C18.879 22.2557 18.8894 22.2505 18.2217 21.9735C16.0327 21.0692 13.8358 21.0483 11.6494 21.9709C9.71171 22.7863 8.25584 24.1375 7.23202 26.0296H7.23464ZM29.6408 9.71883C29.3633 9.79201 29.1879 9.84428 29.0098 9.88348C25.0847 10.7512 21.7566 14.5851 22.3118 19.3182C22.3353 19.5273 22.3641 19.6318 22.6234 19.5743C23.7964 19.3182 24.8962 18.8896 25.886 18.2048C28.1902 16.6158 29.4602 14.4153 29.6985 11.6371C29.7508 11.0203 29.6644 10.3905 29.6408 9.71622V9.71883ZM12.3695 11.0256C12.3537 13.2078 13.1026 15.1078 14.5349 16.7439C15.8101 18.1996 17.4231 19.1013 19.2979 19.5482C19.6802 19.6396 19.73 19.603 19.7719 19.2084C19.8059 18.8948 19.8452 18.5786 19.8347 18.2676C19.7902 16.8354 19.4786 15.4685 18.7664 14.2088C17.4179 11.8253 15.3964 10.3617 12.7099 9.80769C12.4532 9.75542 12.3668 9.83905 12.3695 10.0821C12.3747 10.3983 12.3695 10.712 12.3695 11.0282V11.0256Z" fill="white"/>
</svg>
