<svg width="41" height="41" viewBox="0 0 41 41" fill="none" xmlns="http://www.w3.org/2000/svg">
<path d="M3.0752 35.1794C3.0752 34.2674 3.0752 33.4094 3.0752 32.5546C3.0752 32.3035 3.23122 32.2877 3.41909 32.2908C4.32977 32.3004 5.24364 32.3035 6.15433 32.3163C8.26865 32.3512 10.383 32.3862 12.4973 32.4338C13.2488 32.4497 14.0034 32.4847 14.7549 32.5355C15.0478 32.5546 15.1625 32.4751 15.1625 32.1764C15.1625 31.0833 15.172 29.987 15.1816 28.8907C15.1816 28.6809 15.1147 28.5919 14.8854 28.5729C12.3763 28.3695 10.0677 27.6037 7.95978 26.1991C6.95357 25.5286 5.86457 24.9789 4.81378 24.3719C4.75328 24.337 4.70551 24.2734 4.6673 24.1082C4.96025 24.1082 5.2532 24.0986 5.54614 24.1082C6.90262 24.159 8.28138 24.194 9.46591 23.4313C10.4148 22.8212 11.2809 22.0776 12.1534 21.3562C12.8794 20.7556 13.564 20.1042 14.255 19.4846C14.1371 19.4687 13.9238 19.4623 13.7168 19.4146C11.6375 18.9507 10.0359 17.8162 8.92778 15.9954C8.09033 14.6226 7.71141 13.0941 7.34522 11.5466C7.02999 10.2151 6.65425 8.89634 6.24349 7.59029C5.91233 6.5321 5.27867 5.6614 4.33296 5.04174C4.21196 4.9623 4.09733 4.87014 3.9827 4.78117C3.96359 4.76846 3.95722 4.73668 3.91264 4.6477C4.26291 4.6477 4.58133 4.63817 4.89975 4.6477C5.89004 4.67948 6.88988 4.64135 7.86743 4.76846C10.1028 5.06081 12.0324 6.08722 13.7741 7.46953C14.5479 8.08601 15.2644 8.7724 15.984 9.45562C17.0666 10.482 18.2257 11.4099 19.6681 11.8612C21.8716 12.5507 23.8394 12.0073 25.5876 10.5615C26.5651 9.75432 27.5108 8.90905 28.5043 8.12097C29.1794 7.58393 29.9404 7.18671 30.8224 7.07231C31.4784 6.98969 32.0515 7.15811 32.5387 7.60935C32.9622 8.00339 33.3889 8.39425 33.8283 8.79782C33.9175 8.58174 34.0257 8.32116 34.1308 8.05741C34.4874 7.16447 34.9906 6.37639 35.6688 5.68682C36.3884 4.95276 37.0571 4.16786 37.7513 3.41156C37.9232 3.22408 38.1302 2.92219 38.3977 3.16688C38.6397 3.38296 38.4359 3.66578 38.2671 3.86598C37.8372 4.38077 37.3787 4.8765 36.9488 5.39129C36.2833 6.19208 35.6242 6.99605 34.9842 7.81273C34.8186 8.02564 34.7135 8.29574 34.618 8.55632C34.3251 9.34757 34.3696 9.48104 35.0765 9.95452C35.2835 10.0912 35.5064 10.2024 35.8153 10.3803C35.4013 10.4566 35.0702 10.5392 34.7326 10.5742C34.3856 10.6091 34.2614 10.7871 34.3219 11.1017C34.4811 11.9152 34.653 12.7223 34.8282 13.5327C34.8632 13.7011 35.0256 13.8949 34.7358 13.9839C34.4811 14.0602 34.2964 13.9902 34.2423 13.6979C34.0958 12.9098 33.927 12.1249 33.7965 11.3337C33.7073 10.7966 33.7105 10.768 33.1819 10.892C31.0867 11.3813 29.8672 12.7001 29.5965 15.1628C29.4851 16.1797 29.5647 17.2188 29.5201 18.2452C29.3004 23.3582 26.2881 26.9872 21.3016 28.1566C20.6329 28.3123 19.9547 28.4235 19.2892 28.5792C19.1746 28.6047 19.0122 28.7635 19.009 28.8621C18.9899 30.0632 18.9899 31.2644 19.009 32.4656C19.009 32.5387 19.216 32.6626 19.3306 32.6658C20.5183 32.7008 21.7092 32.7135 22.9001 32.7421C23.4542 32.7548 24.0114 32.831 24.5623 32.8056C25.6958 32.7516 26.8262 32.6594 27.9566 32.5641C28.6285 32.5069 29.294 32.4084 29.9659 32.3512C30.2652 32.3258 30.3639 32.205 30.3543 31.9031C30.3321 31.2994 30.3543 30.6924 30.3639 30.0855C30.3703 29.6787 30.59 29.504 30.9976 29.5071C32.2139 29.5135 33.4303 29.5071 34.6467 29.504C35.6911 29.504 36.7355 29.4944 37.7799 29.5008C38.4996 29.504 38.9453 29.9329 38.9485 30.6352C38.9517 32.7611 38.9517 34.8839 38.9358 37.0098C38.9326 37.6548 38.7893 37.9345 38.0219 37.925C35.828 37.8995 33.6341 37.9122 31.4402 37.9091C31.4147 37.9091 31.386 37.9091 31.3606 37.9091C30.5358 37.8932 30.4308 37.7978 30.4148 36.9748C30.4021 36.3583 30.4148 35.745 30.4148 35.1413C27.9121 34.8712 25.5048 34.5629 23.0657 34.6646C20.2413 34.7822 17.4105 34.8489 14.5829 34.9093C11.5961 34.976 8.60936 35.0046 5.62257 35.0618C4.93478 35.0745 4.25017 35.1381 3.56556 35.173C3.41272 35.1826 3.25988 35.173 3.0752 35.173V35.1794ZM17.6844 28.7508H16.3597V32.5101C16.8023 32.5292 17.2195 32.5514 17.6844 32.5705V28.7508Z" fill="white"/>
<path d="M34.4061 26.6579C35.5991 26.6579 36.7951 26.6493 37.9881 26.6608C38.5788 26.6666 38.9284 26.9925 38.949 27.5116C38.9725 28.1317 38.6111 28.6076 38.0557 28.6797C37.9587 28.6913 37.8618 28.6999 37.7648 28.6999C35.4493 28.697 33.1338 28.697 30.8182 28.6826C30.1953 28.6797 29.7222 28.1894 29.7251 27.6155C29.728 27.079 30.1894 26.6695 30.8241 26.655C31.4206 26.6435 32.0171 26.655 32.6166 26.655C33.2131 26.655 33.8096 26.655 34.4091 26.655C34.4091 26.655 34.4091 26.6579 34.4091 26.6608L34.4061 26.6579Z" fill="white"/>
<path d="M34.4606 38.9602C35.6445 38.9602 36.8284 38.9573 38.0093 38.9602C38.6056 38.9602 38.9053 39.2359 38.9464 39.7843C38.9905 40.3762 38.6379 40.8928 38.1121 40.9711C37.8977 41.003 37.6744 41.0001 37.4541 41.0001C35.4418 41.0001 33.4266 41.0001 31.4143 41.0001C31.2057 41.0001 31.0001 40.9914 30.7915 40.9798C30.1746 40.9421 29.7193 40.4865 29.7252 39.912C29.7281 39.3693 30.204 38.9544 30.8326 38.9515C32.04 38.9486 33.2474 38.9515 34.4547 38.9515C34.4547 38.9515 34.4547 38.9573 34.4547 38.9602H34.4606Z" fill="white"/>
<path d="M2.0389 33.336C2.0389 33.6314 2.04445 33.9244 2.0389 34.2197C2.03057 34.5576 1.82522 34.7963 1.44227 34.8365C1.1398 34.8672 0.823446 34.8412 0.52097 34.7987C0.185193 34.7538 0.00481777 34.5647 0.00759278 34.2623C0.0103678 33.6266 -0.0173823 32.9886 0.0186928 32.353C0.0436679 31.93 0.232368 31.8119 0.723545 31.7835C0.917796 31.7717 1.11482 31.774 1.31185 31.7788C1.81135 31.7906 2.01115 31.9607 2.0389 32.3932C2.05 32.5491 2.04722 32.7074 2.05 32.8634C2.05 33.0193 2.05 33.1777 2.05 33.3336H2.0389V33.336Z" fill="white"/>
<path d="M38.9543 2.53826C38.9851 2.25439 38.9995 1.9675 39.0468 1.68967C39.2275 0.602496 40.1251 -0.20684 40.8687 0.0468323C40.9242 0.0649518 41.0002 0.209908 41.0002 0.294465C41.0043 2.28157 40.4066 2.94293 39.2111 3.07279C38.9358 3.10298 38.9461 2.81911 38.9523 2.53826H38.9543Z" fill="white"/>
<path d="M33.8305 1.54566C34.0818 1.20587 34.4722 0.648103 34.9213 0.109568C34.9854 0.0326344 35.4132 -0.0314769 35.5415 0.0166066C38.14 0.987892 38.5303 2.34705 37.1188 3.84084C36.8301 4.14858 36.4718 4.17743 35.9746 3.95304C34.7662 3.40809 33.9161 2.74775 33.8252 1.54566H33.8305Z" fill="white"/>
<path d="M32.8026 4.30418C32.8026 3.58845 32.9512 2.93668 33.2208 2.3449C33.3584 2.03701 33.507 1.93705 33.7491 2.20495C34.2609 2.76874 34.7039 3.38052 34.8195 4.35617C34.9323 5.30382 34.7149 6.15151 34.4233 6.96721C34.3104 7.2871 34.1178 7.17114 33.9472 7.05518C33.2951 6.59135 32.7943 5.38779 32.7998 4.30818L32.8026 4.30418Z" fill="white"/>
<path d="M39.4299 7.17264C38.9087 7.21029 38.4757 6.81025 38.0661 6.28314C37.9001 6.07136 37.8794 5.85957 38.009 5.55366C38.761 3.8076 39.9718 3.61464 40.8948 5.08302C41.053 5.33717 41.0115 5.54895 40.9078 5.77956C40.5267 6.63141 40.0729 7.23383 39.4299 7.16794V7.17264Z" fill="white"/>
<path d="M37.0177 9.2248C36.0948 9.2248 35.4321 8.80083 34.8905 8.22129C34.8121 8.13589 34.8549 7.84612 34.9582 7.78207C36.3621 6.89141 37.6733 6.94022 38.8528 8.19689C38.9988 8.35245 38.981 8.48056 38.7957 8.61782C38.3646 8.93809 37.5664 9.22175 37.0177 9.2248Z" fill="white"/>
</svg>
