<svg width="95" height="41" viewBox="0 0 95 41" fill="none" xmlns="http://www.w3.org/2000/svg">
<path d="M18.8463 21.784C19.1736 21.73 19.4855 21.5799 19.7165 21.6646C20.0707 21.7955 20.4442 22.0227 20.6714 22.3192C21.1912 22.9892 21.6418 23.7131 22.0923 24.4331C22.4042 24.9337 22.8277 25.157 23.4091 25.1493C24.2255 25.1378 25.0456 25.1493 25.8619 25.1455C26.5512 25.1378 27.0941 24.8759 27.4522 24.2521C27.7987 23.6553 28.1915 23.0893 28.5534 22.504C29.054 21.6915 29.4853 21.5183 30.4248 21.8032C30.6019 21.2333 30.779 20.6596 30.9562 20.0859C31.6416 17.8333 32.3077 15.5769 33.0239 13.3359C33.2318 12.689 33.5245 12.046 33.8903 11.4761C34.4717 10.5712 35.3227 10.1053 36.4393 10.1207C38.6534 10.1477 40.8674 10.1592 43.0815 10.113C44.6679 10.0822 45.6844 10.8908 46.2543 12.2347C46.7009 13.2897 46.9474 14.4295 47.2439 15.5423C47.7406 17.3982 48.218 19.258 48.6801 21.1255C48.7725 21.5067 48.7841 21.9187 48.7764 22.3153C48.761 23.07 48.4452 23.432 47.7252 23.5898C47.0244 23.7439 46.3968 23.4743 46.1272 22.8544C45.9347 22.4154 45.7999 21.9534 45.6652 21.4913C45.0414 19.3735 44.4253 17.248 43.8015 15.1303C43.7514 14.957 43.6475 14.803 43.5512 14.5989C43.1777 14.88 43.2008 15.1996 43.2778 15.5038C43.5705 16.6358 43.8824 17.7602 44.1904 18.8884C45.0953 22.1921 46.004 25.4959 46.9127 28.8034C46.932 28.8766 46.9281 28.9575 46.9435 29.0845H43.3933C43.3779 29.2809 43.3587 29.4349 43.3587 29.589C43.3587 32.6386 43.3548 35.6843 43.351 38.7339C43.351 39.8968 42.6425 40.6708 41.5798 40.6708C40.5786 40.6708 39.8201 39.8506 39.8201 38.7262C39.8124 35.8229 39.8201 32.9197 39.8201 30.0164C39.8201 29.9047 39.8201 29.793 39.8201 29.6814C39.8047 29.0691 39.7777 29.0499 39.0923 29.1577C39.0846 29.3348 39.0692 29.5235 39.0692 29.7122C39.0692 32.7772 39.0769 35.8422 39.0692 38.9034C39.0692 39.8198 38.4108 40.5398 37.5521 40.6708C36.628 40.8094 35.546 40.02 35.5652 38.9573C35.623 35.9269 35.5999 32.8927 35.5999 29.8623C35.5999 28.9883 35.6808 29.1076 34.8144 29.1038C33.9018 29.0961 32.9892 29.1038 31.9766 29.1038C33.2819 24.3291 34.568 19.6084 35.8733 14.8261C35.3766 14.8222 35.1994 15.0532 35.1032 15.3805C34.7759 16.4702 34.4563 17.5599 34.129 18.6458C33.7478 19.9203 33.3743 21.1948 32.9777 22.4616C32.8198 22.9622 32.5772 23.405 32.0112 23.5706C31.5838 23.6977 31.191 23.6669 30.8291 23.3858C30.6943 23.278 30.5519 23.1778 30.4402 23.097C29.6239 24.5563 28.8461 26.0003 28.0182 27.4134C27.5485 28.2143 27.4483 29.0383 27.6832 29.9085C28.1106 31.4834 28.5611 33.0544 29.0001 34.6293C29.0155 34.687 29.0271 34.7487 29.054 34.868H27.6139C27.5985 35.1222 27.5831 35.3224 27.5793 35.5226C27.56 36.7586 27.5523 37.9908 27.5215 39.2268C27.5061 39.8236 27.148 40.2241 26.6128 40.4089C26.0891 40.5899 25.5423 40.5283 25.1496 40.0855C24.9763 39.8891 24.8454 39.5849 24.8377 39.3269C24.803 38.0447 24.8146 36.7586 24.803 35.4764C24.7992 34.8488 24.7799 34.8411 24.0791 34.9219C24.0676 35.0836 24.0483 35.2531 24.0483 35.4225C24.0483 36.6585 24.0483 37.8945 24.056 39.1267C24.056 39.9006 23.5978 40.4243 22.8739 40.4628C22.0615 40.5052 21.4184 40.0162 21.3722 39.2384C21.3222 38.3758 21.3453 37.5056 21.3337 36.6393C21.3337 36.6085 21.3337 36.5738 21.3337 36.543C21.3299 36.0463 21.5031 35.4225 21.2644 35.0913C21.068 34.8141 20.3942 34.8757 19.8936 34.7833C20.2517 33.5011 20.6214 32.1804 20.991 30.8558C21.0757 30.5477 21.1604 30.2397 21.2298 29.9239C21.4569 28.9074 21.2991 27.9794 20.7484 27.0707C20.0322 25.8963 19.4123 24.6641 18.7462 23.4551C18.6807 23.3357 18.5921 23.2279 18.492 23.0854C17.9222 23.5744 17.3407 23.7901 16.6553 23.4512C16.2857 23.2664 16.0277 23.0084 16.0162 22.5695C15.9969 21.9303 15.9776 21.2872 15.9738 20.6442C15.9622 18.6381 15.9584 16.632 15.9507 14.6297C15.9507 14.518 15.9738 14.3948 15.9353 14.2947C15.8429 14.0483 15.7197 13.8172 15.608 13.5785C15.4001 13.7787 15.1344 13.952 14.9996 14.1946C14.8841 14.4025 14.8956 14.6913 14.8956 14.9416C14.8918 22.8351 14.8764 30.7287 14.9072 38.6223C14.9111 39.6966 14.2257 40.4782 13.2053 40.5552C12.0963 40.6399 11.1914 39.9854 11.022 38.9111C10.9566 38.4875 10.9527 38.0485 10.9527 37.6173C10.945 33.4125 10.945 29.2116 10.9412 25.0068C10.9412 24.8143 10.9258 24.6218 10.9258 24.4293C10.9219 24.1597 10.7794 24.075 10.5253 24.0789C10.2635 24.0789 10.0863 24.1443 10.0748 24.4408C10.0594 24.8913 10.0209 25.338 10.0209 25.7885C10.0209 30.0395 10.0209 34.2904 10.0286 38.5414C10.0286 39.0843 9.92848 39.5849 9.58963 40.0316C9.05056 40.7285 8.16494 40.8171 7.20616 40.5629C6.52077 40.3781 6.03175 39.558 6.03175 38.7455C6.03175 30.7557 6.03175 22.7658 6.03175 14.776C6.03175 14.0868 5.88543 13.875 5.22699 13.7133C5.19619 13.952 5.14613 14.1792 5.14228 14.4064C5.13073 16.8129 5.12303 19.2195 5.11533 21.6261C5.11533 21.9457 5.09993 22.2691 5.09223 22.5887C5.08067 23.0623 4.86889 23.3973 4.45304 23.6399C4.28747 23.7362 4.11804 23.9441 4.08339 24.1251C3.36719 27.8716 2.67025 31.622 1.96175 35.3686C1.69607 36.7856 1.41113 38.1987 1.13389 39.6157C1.12234 39.6773 1.11464 39.7428 1.09924 39.8044C1.00682 40.1432 0.879756 40.4975 0.448498 40.4282C-0.0135644 40.3512 -0.0328169 39.9353 0.0210903 39.5888C0.178962 38.5607 0.375338 37.5364 0.571715 36.5122C1.2032 33.193 1.83854 29.8739 2.47002 26.5547C2.63944 25.6576 2.82427 24.7643 2.96674 23.8632C2.99369 23.6823 2.87818 23.4705 2.80502 23.2857C2.70875 23.0315 2.49312 22.7889 2.49312 22.5387C2.46617 19.1848 2.46232 15.831 2.47002 12.4811C2.47387 10.2747 4.43379 8.30328 6.82111 8.23012C9.37015 8.15311 11.923 8.15311 14.4721 8.23012C16.9826 8.30328 18.8925 10.3287 18.9079 12.8315C18.9271 15.5577 18.9079 18.2877 18.9079 21.0138C18.9079 21.2526 18.8732 21.4875 18.8501 21.784H18.8463Z" fill="white"/>
<path d="M90.7479 26.7936C90.7479 30.7557 90.7479 34.7179 90.7479 38.6801C90.7479 39.7737 90.1588 40.4436 89.1076 40.5553C88.041 40.667 87.113 40.047 86.9012 39.0536C86.8319 38.7263 86.8165 38.3836 86.8127 38.0486C86.805 33.7014 86.8049 29.3542 86.8011 25.0069C86.8011 24.8644 86.7972 24.7181 86.7934 24.5757C86.7857 24.2984 86.7549 24.0751 86.3775 24.0828C86.031 24.0866 85.9309 24.2445 85.9232 24.5526C85.9155 25.0185 85.877 25.4805 85.877 25.9464C85.877 30.1666 85.8847 34.3868 85.8847 38.6031C85.8847 39.6158 85.4804 40.2319 84.6217 40.5438C83.7746 40.8557 82.9583 40.6516 82.3537 39.97C81.9918 39.5657 81.8878 39.0767 81.8878 38.5453C81.8878 30.8597 81.8878 23.1741 81.8878 15.4923C81.8878 15.1727 81.9109 14.8492 81.8801 14.5296C81.857 14.314 81.7993 14.0791 81.6799 13.9059C81.5875 13.7749 81.3757 13.7326 81.214 13.6517C81.1447 13.7981 81.0215 13.9405 81.0099 14.0907C80.9714 14.5528 80.9676 15.0187 80.9676 15.4846C80.9676 17.6486 80.9753 19.8164 80.9791 21.9804C80.9791 22.1883 80.9637 22.3963 80.9368 22.6042C80.8366 23.2934 80.2552 23.7632 79.5467 23.7324C78.8421 23.7016 78.2799 23.1933 78.2606 22.4964C78.2337 21.5337 78.2491 20.5711 78.2452 19.6085C78.2375 17.3636 78.2876 15.1149 78.2067 12.8701C78.1297 10.7869 79.7431 8.30336 82.6733 8.21865C85.1916 8.14934 87.7098 8.16089 90.2281 8.21865C92.6962 8.27255 94.4983 10.0669 94.556 12.5967C94.6254 15.7541 94.5907 18.9154 94.556 22.0767C94.5445 23.3627 93.4663 24.0135 92.4267 23.3897C92.1764 23.2395 91.9839 22.9007 91.8915 22.608C91.7914 22.3 91.8299 21.9419 91.8299 21.6069C91.8183 19.2966 91.8145 16.9863 91.8029 14.676C91.8029 14.5489 91.826 14.4064 91.7837 14.2948C91.6913 14.0483 91.5642 13.8212 91.4525 13.5824C91.2446 13.7865 90.9866 13.9598 90.848 14.2024C90.7363 14.391 90.7479 14.6683 90.7479 14.9031C90.744 18.8653 90.7479 22.8275 90.744 26.7897L90.7479 26.7936Z" fill="white"/>
<path d="M63.4159 14.6338C62.9615 14.9919 63.1155 15.3808 63.2118 15.7427C64.0242 18.7423 64.8406 21.738 65.6569 24.7337C66.0227 26.0775 66.4 27.4175 66.7697 28.7613C66.7928 28.8537 66.8005 28.9462 66.8274 29.0963H63.3157C63.3042 29.3466 63.2811 29.5468 63.2811 29.7509C63.2811 32.7197 63.2811 35.6884 63.2888 38.6533C63.2888 39.9355 62.5071 40.7711 61.3866 40.6787C60.3894 40.5978 59.7848 39.9509 59.7848 38.9498C59.7848 36.6395 59.8002 34.3292 59.8041 32.0189C59.8041 31.0755 59.8041 30.1321 59.8041 29.2157C59.0263 28.9924 58.9108 29.0617 58.9108 29.7625C58.9031 32.762 58.8992 35.7616 58.9108 38.7611C58.9146 40.1897 57.8288 41.0252 56.5196 40.567C55.8303 40.3244 55.4183 39.7392 55.4183 38.9305C55.4183 35.8809 55.4183 32.8352 55.426 29.7856C55.426 29.3338 55.2027 29.1066 54.756 29.104C53.7973 29.104 52.8385 29.104 51.845 29.104C53.1504 24.3294 54.4365 19.6086 55.7302 14.8725C55.2643 14.68 55.1103 14.9495 55.0179 15.2422C54.6944 16.2818 54.3864 17.3253 54.0745 18.3688C53.6625 19.7319 53.2659 21.0988 52.8346 22.458C52.646 23.051 52.3071 23.5593 51.6256 23.617C50.4165 23.7171 49.7311 23.0433 49.9853 21.7264C50.1739 20.7561 50.5205 19.8166 50.8093 18.8693C51.3753 17.0018 51.9529 15.1343 52.5189 13.2668C52.7769 12.4082 53.1581 11.6265 53.7934 10.9835C54.3479 10.4174 55.0025 10.1248 55.8111 10.1325C58.106 10.1479 60.4009 10.1518 62.692 10.1287C63.7085 10.1171 64.5056 10.5214 65.1139 11.2838C65.4605 11.7151 65.7993 12.2002 65.9649 12.7201C66.889 15.6195 67.7631 18.5305 68.6449 21.4415C68.7142 21.6687 68.7527 21.9151 68.7488 22.15C68.7411 22.9971 68.2868 23.5131 67.4705 23.6324C66.7004 23.7441 66.0958 23.3398 65.8224 22.4811C65.5144 21.5031 65.2449 20.5174 64.9522 19.5355C64.5017 18.0338 64.0473 16.5282 63.593 15.0265C63.5583 14.911 63.4929 14.8032 63.4159 14.6376V14.6338Z" fill="white"/>
<path d="M70.0628 28.3568C69.6161 29.7853 69.1733 31.2177 68.7189 32.6424C68.5418 33.1969 68.0797 33.4549 67.5368 33.3355C67.0671 33.2315 66.8206 32.8542 66.8668 32.2689C66.8822 32.0648 66.9246 31.8531 67.0016 31.6644C67.687 29.9586 68.3801 28.2528 69.077 26.5509C69.1925 26.2698 69.3543 26.0118 69.4929 25.7384C69.9395 24.8567 70.6711 24.4716 71.6415 24.4832C73.1008 24.5063 74.5563 24.5178 76.0157 24.5371C77.0053 24.5486 77.5559 25.1647 77.9217 25.9849C78.2143 26.6433 78.4608 27.321 78.7303 27.9871C79.0653 28.8188 79.4619 29.6313 79.716 30.4861C79.8816 31.0329 79.8854 31.6451 79.8739 32.2266C79.8623 32.7656 79.3926 32.8311 78.969 32.8965C78.5724 32.9582 78.3876 32.7502 78.2605 32.4114C77.8601 31.3332 77.4442 30.2589 77.0361 29.1808C76.9552 28.9652 76.8705 28.7534 76.7858 28.5416C76.7357 28.5493 76.6857 28.557 76.6356 28.5686C76.6356 29.6621 76.6356 30.7557 76.6356 31.8492C76.6433 34.2365 76.6626 36.6277 76.6664 39.015C76.6664 40.3011 75.5652 40.9788 74.4485 40.3781C73.9056 40.0855 73.7323 39.5695 73.7246 39.0035C73.7054 37.6558 73.7246 36.3081 73.7054 34.9643C73.7054 34.7255 73.8632 34.3328 73.4551 34.302C72.9969 34.2712 73.0161 34.6562 73.02 34.9912C73.0277 36.3543 73.0315 37.7174 73.0354 39.0805C73.0354 39.839 72.7504 40.2818 72.1189 40.4898C71.5067 40.6939 70.779 40.4821 70.4132 39.9353C70.2899 39.7505 70.2399 39.4886 70.236 39.2615C70.2206 36.0078 70.2206 32.7502 70.2129 29.4965C70.2129 29.1115 70.1821 28.7264 70.1629 28.3414C70.1282 28.3491 70.0897 28.3568 70.0551 28.3645L70.0628 28.3568Z" fill="white"/>
<path d="M14.1255 3.5632C14.3103 5.55007 12.7046 7.05947 10.6754 7.10183C8.7771 7.14033 7.20994 5.57702 7.18299 3.62866C7.15604 1.56863 8.59613 0.0630754 10.5984 0.00146705C12.3889 -0.0524402 14.3296 1.3838 14.1255 3.5632Z" fill="white"/>
<path d="M82.9462 3.50929C82.7999 1.54167 84.5134 0.00146484 86.354 0.00146484C88.337 0.00531536 89.9234 1.54552 89.958 3.54394C89.9927 5.42685 88.4371 7.03251 86.5542 7.06717C84.344 7.10953 82.8423 5.4461 82.9462 3.50159V3.50929Z" fill="white"/>
<path d="M39.8742 2.14577C41.4914 1.94169 43.2126 3.51655 43.1895 5.44181C43.1664 7.22845 41.6608 8.72246 39.8434 8.72246C37.9874 8.72246 36.5704 7.27851 36.5319 5.43796C36.4934 3.55506 38.1145 1.94169 39.8742 2.14962V2.14577Z" fill="white"/>
<path d="M62.6271 5.41926C62.6271 7.27136 61.2255 8.6922 59.3965 8.6922C57.4443 8.6922 55.9426 7.23285 55.9965 5.30374C56.035 3.8983 57.0285 2.09626 59.4851 2.11936C61.0292 2.13476 62.7426 3.5171 62.6271 5.41926Z" fill="white"/>
<path d="M24.642 23.563C23.0671 23.563 21.8965 22.4001 21.9004 20.8406C21.9043 19.2388 23.1634 17.9605 24.7074 17.9797C26.1899 17.999 27.4875 19.3158 27.4914 20.8021C27.4952 22.3462 26.2399 23.5591 24.6381 23.5591L24.642 23.563Z" fill="white"/>
<path d="M73.4392 23.5624C71.8451 23.5547 70.713 22.3918 70.7207 20.7707C70.7246 19.2652 71.9799 17.9907 73.4623 17.9868C75.0487 17.9868 76.304 19.2421 76.304 20.8285C76.304 22.3841 75.0641 23.5701 73.4431 23.5662L73.4392 23.5624Z" fill="white"/>
</svg>
