<svg width="81" height="41" viewBox="0 0 81 41" fill="none" xmlns="http://www.w3.org/2000/svg">
<path d="M80.1965 20.5042C78.3166 23.1387 76.1875 25.5542 73.8056 27.7575C70.3053 30.9984 66.4479 33.7407 62.1694 35.8463C57.8504 37.972 53.3192 39.4881 48.5555 40.2798C45.5673 40.775 42.5588 41.0445 39.5335 40.994C33.7491 40.8963 28.1062 39.9664 22.6687 37.9215C16.8573 35.7351 11.6591 32.5514 7.02342 28.4312C4.51357 26.201 2.26312 23.7417 0.292303 21.0263C-0.10523 20.4806 -0.0917546 20.4738 0.299041 19.9348C1.70388 17.9909 3.32434 16.2425 4.99532 14.521C8.75167 10.6568 13.0605 7.57423 17.8444 5.14186C22.1297 2.96217 26.6643 1.52364 31.4077 0.704989C35.6424 -0.0260677 39.9008 -0.154087 44.1625 0.162592C53.3899 0.846484 61.7482 3.95937 69.2239 9.42377C72.9634 12.156 76.2717 15.3329 79.1117 18.9915C79.4621 19.443 79.7956 19.9112 80.1358 20.3728C80.1594 20.4065 80.1695 20.4469 80.1965 20.5008V20.5042ZM53.7437 16.9533C53.8818 16.9971 53.9627 17.0005 54.0132 17.0409C54.3063 17.2801 54.5859 17.5294 54.879 17.7686C55.3574 18.1661 55.9907 18.0886 56.2535 17.5294C56.395 17.2296 56.459 16.8152 56.3782 16.4951C54.7375 9.79098 48.9059 5.11154 43.2124 4.21204C39.3786 3.60563 35.757 4.13119 32.3409 6.00094C32.1792 6.08853 32.0208 6.18623 31.8625 6.27719C32.7115 6.27719 33.5301 6.15254 34.3488 6.16265C35.0091 6.16939 35.6728 6.30751 36.3196 6.45911C36.5015 6.50291 36.7576 6.81622 36.7441 6.98467C36.6632 7.91449 37.0473 8.54448 37.8322 8.97907C37.9165 9.02623 37.9704 9.1172 38.0479 9.17447C38.3005 9.3665 38.3174 9.54842 38.031 9.72023C37.3269 10.1447 36.6228 10.5726 35.9119 10.9869C35.7098 11.1049 35.4807 11.1891 35.2617 11.2733C35.0023 11.371 34.7968 11.2565 34.7295 11.0173C34.6958 10.8893 34.7766 10.6568 34.8811 10.5827C35.2314 10.3334 35.6222 10.138 35.9894 9.91226C36.1815 9.79435 36.3668 9.66296 36.6093 9.50125C35.9827 9.225 35.4571 9.31259 34.9147 9.41703C34.0119 9.59221 33.1056 9.7674 32.1927 9.87857C31.2089 9.99985 30.2488 10.1582 29.4773 10.8421C29.0225 11.2464 29.0292 11.59 29.5683 11.8528C30.114 12.1223 30.707 12.3008 31.2898 12.4895C31.7682 12.6445 32.1623 12.4592 32.4891 12.0987C32.6677 11.9033 32.8395 11.6978 33.0383 11.5226C33.4526 11.152 33.9007 11.179 34.4498 11.6877C34.3286 11.7483 34.2005 11.7854 34.1028 11.8662C33.7558 12.1492 33.3954 12.4221 33.0888 12.7422C32.5801 13.2745 32.0141 13.3149 31.3235 13.1666C30.6935 13.0319 30.0029 12.914 29.3897 13.0353C28.7732 13.1565 28.214 13.5844 27.6278 13.8707C27.2808 14.0392 27.1157 14.2885 27.0988 14.6894C27.0753 15.2655 26.9068 15.3767 26.3206 15.3295C26.1825 15.3194 26.0444 15.2621 25.9062 15.2689C25.4548 15.2891 24.9832 15.2587 24.5553 15.3733C24.1274 15.4912 24.0331 15.9595 24.2487 16.4311C24.434 16.8388 24.589 16.8792 25.091 16.6602C25.2325 16.5996 25.3706 16.5255 25.5188 16.4884C26.5295 16.2492 27.5099 15.946 28.3689 15.3261C28.4801 15.2453 28.8035 15.2992 28.9113 15.407C29.2718 15.7742 29.5784 16.1919 29.9052 16.5895C29.9995 16.704 30.0938 16.8219 30.1881 16.9398C30.1983 16.7343 30.114 16.5827 30.1006 16.421C30.0904 16.2896 30.1309 16.0909 30.2218 16.0302C30.2993 15.9797 30.5116 16.0437 30.6093 16.1212C30.7811 16.2593 30.9259 16.4379 31.0573 16.6164C31.2123 16.8253 31.374 16.8792 31.6334 16.7849C32.3005 16.5457 32.5531 16.7343 32.6272 17.4351C32.6677 17.8225 32.5228 18.0819 32.2129 18.2807C31.7244 18.5872 31.2056 18.786 30.6227 18.6378C30.0702 18.4963 29.5278 18.3211 28.9821 18.1527C27.968 17.8393 26.9675 17.4991 25.9433 17.2195C25.283 17.0409 24.7305 17.2532 24.2757 17.8057C23.6659 18.5468 23.2347 19.3183 23.4065 20.3155C23.4335 20.4637 23.4065 20.6221 23.4099 20.777C23.457 22.7411 23.8647 24.6311 24.5519 26.4638C24.7777 27.0635 25.1381 27.1915 25.7108 26.9018C26.0242 26.7434 26.324 26.5649 26.6272 26.3964C27.1191 26.1235 27.4189 26.1572 27.8434 26.5244C28.0017 26.6626 28.1904 26.7737 28.3184 26.9321C28.4902 27.1443 28.7092 27.3768 28.7429 27.6227C28.7968 28.0169 28.9315 28.1314 29.3021 28.0236C29.6794 27.9158 29.8344 28.1112 29.8917 28.4649C29.9523 28.849 30.0298 29.2364 30.1342 29.6104C30.1747 29.7519 30.3027 29.9473 30.4206 29.9708C30.7137 30.0247 30.7002 30.1932 30.7272 30.4189C30.8181 31.1365 30.8956 31.8608 31.0674 32.5616C31.2056 33.1174 31.4953 33.2421 32.0579 33.1107C33.1899 32.8546 34.0691 32.2819 34.4465 31.1196C34.5846 30.6952 34.6991 30.2606 34.8541 29.8428C34.9181 29.671 35.0226 29.4722 35.1708 29.3813C35.6795 29.068 35.9221 28.5896 36.0332 28.0472C36.1377 27.5317 36.2017 26.9995 36.2118 26.4739C36.2253 25.8506 36.4308 25.3318 36.8586 24.8905C37.1113 24.6277 37.3741 24.3751 37.6065 24.0954C38.0377 23.5834 37.9636 23.1589 37.4044 22.8051C37.2629 22.7176 37.1147 22.6333 36.9664 22.5626C35.976 22.0977 35.4605 21.2487 35.1843 20.2481C35.0899 19.9112 35.1708 19.5238 35.1708 19.0488C35.3797 19.2206 35.5043 19.3082 35.6054 19.4126C36.168 19.9988 36.7036 20.6086 37.2932 21.1645C37.4852 21.3498 37.8491 21.5519 38.0512 21.4879C38.57 21.3228 39.0888 21.0735 39.5167 20.74C39.9715 20.3863 39.9311 20.0089 39.5234 19.5912C38.8968 18.9511 38.2534 18.3278 37.6267 17.6877C37.4246 17.4789 37.2427 17.243 37.081 17.0005C37.0237 16.9129 36.99 16.7276 37.0405 16.667C37.1147 16.576 37.2764 16.5154 37.401 16.5154C37.529 16.5154 37.6705 16.5861 37.7851 16.6569C38.4959 17.0948 39.2202 17.5193 39.9041 17.9977C40.1501 18.1695 40.4162 18.4592 40.4667 18.7355C40.652 19.699 41.2416 20.2111 42.131 20.4738C43.1518 20.777 44.1523 21.1038 44.8969 21.9494C45.2001 22.2931 45.4056 22.2291 45.6717 21.8551C46.0928 21.2622 46.3017 20.6254 46.1771 19.8843C46.1501 19.7125 46.2209 19.4463 46.3455 19.3453C46.8744 18.9241 47.7436 19.1397 48.0165 19.7495C48.3231 20.4368 48.6094 21.1375 48.8655 21.845C49.3304 23.1319 50.3512 23.8697 51.4562 24.5233C51.564 24.5873 51.7392 24.5334 51.8807 24.5334C51.8672 24.3885 51.8874 24.2268 51.8301 24.0988C51.6853 23.7821 51.537 23.4587 51.3349 23.1757C50.7588 22.3773 51.0115 21.6159 51.3989 20.8545C51.5674 20.521 51.8402 20.3526 52.2041 20.2481C52.669 20.11 53.1272 19.9247 53.555 19.699C54.1277 19.3958 54.1378 19.2779 53.8212 18.7254C53.491 18.1527 53.5045 17.5698 53.7403 16.9331L53.7437 16.9533ZM50.1254 32.2954C50.5971 31.7867 51.0856 31.9888 51.5909 32.1404C51.7358 32.1842 51.9851 32.1202 52.0895 32.009C53.4977 30.5469 54.5893 28.8726 55.4315 27.0264C55.6741 26.4941 55.6404 26.009 55.3877 25.5036C55.0542 24.8366 54.9801 24.7962 54.3467 25.2173C53.6157 25.7058 52.8105 25.982 51.9615 26.1909C51.0317 26.42 50.0783 26.6289 49.2091 27.0163C47.9053 27.5991 47.3528 29.0275 47.7537 30.3852C47.8481 30.7053 47.9289 31.0321 48.0098 31.3555C48.2456 32.2954 48.3298 32.3325 49.1687 31.8675C49.6246 31.616 49.9447 31.7575 50.1288 32.292L50.1254 32.2954ZM50.0648 33.8148C49.8155 33.7104 49.6336 33.6093 49.4416 33.5554C48.5522 33.3162 47.7167 33.4745 46.962 33.9799C46.5241 34.273 46.1232 34.6267 45.7155 34.967C45.4359 35.1994 45.1462 35.2971 44.7891 35.1826C43.8458 34.8794 42.8991 34.5896 41.9592 34.2831C40.716 33.8754 39.4561 33.5655 38.1354 33.8047C37.1012 33.9933 36.1916 34.4279 35.5582 35.3039C35.1405 35.8799 35.3258 36.4459 35.9827 36.6043C38.1489 37.1298 40.332 37.3016 42.5487 36.9479C45.2708 36.5133 47.7436 35.4959 50.0648 33.8148ZM55.6 18.5401C55.5831 18.9915 55.6943 19.4665 55.5326 19.8034C54.9194 21.06 55.0811 22.4615 56.0615 23.4587C56.1558 23.553 56.2636 23.6305 56.3647 23.7181C56.4119 23.7114 56.459 23.7013 56.5062 23.6945C56.5972 22.3941 56.7184 21.0971 56.769 19.7967C56.7959 19.0791 56.1457 18.4895 55.6033 18.5401H55.6ZM24.7271 14.0965C24.7777 14.1504 24.8316 14.2076 24.8821 14.2615C26.1522 13.581 26.9472 12.3076 28.2207 11.5563C27.4559 11.1419 26.3644 11.2699 26.014 11.8191C25.5458 12.5535 25.1516 13.3351 24.7271 14.0965ZM36.5925 29.0545L36.7003 29.0478C36.7407 28.9939 36.7946 28.9433 36.8182 28.8793C37.2528 27.7777 37.6874 26.6727 38.1186 25.5677C38.1388 25.5171 38.1321 25.4565 38.1388 25.4026C38.1826 25.0691 38.0041 24.9545 37.7143 25.032C37.2966 25.1432 36.9732 25.4026 36.8923 25.8405C36.7407 26.6794 36.6127 27.5216 36.5083 28.3672C36.4813 28.5896 36.5622 28.8254 36.5958 29.0545H36.5925ZM28.3487 8.6186C28.2173 8.68934 27.9276 8.78367 27.7255 8.97233C27.4559 9.225 27.2437 9.54842 27.0281 9.85499C26.9607 9.95269 26.8933 10.1582 26.9439 10.2121C27.0618 10.3469 27.2437 10.5052 27.4054 10.5119C28.0287 10.5355 28.8608 9.79098 28.9619 9.17784C29.0259 8.79041 28.881 8.6186 28.3487 8.62196V8.6186ZM42.9058 22.6603C43.2933 23.0578 43.7514 23.1825 44.2534 23.1117C44.6341 23.0578 44.688 22.8557 44.4488 22.5659C43.9468 21.9663 43.4044 21.9865 42.9058 22.6603ZM53.0867 24.6749C53.2518 24.6513 53.3933 24.6412 53.5281 24.6075C53.8818 24.5233 53.9357 24.3818 53.6595 24.1426C53.4371 23.9506 53.1575 23.7821 52.8745 23.7046C52.6117 23.6305 52.3186 23.7518 52.2479 24.055C52.1805 24.3515 52.3927 24.5166 52.6589 24.5907C52.8037 24.6311 52.9587 24.6513 53.0834 24.6749H53.0867ZM52.5646 22.9298C52.5881 22.8725 52.6083 22.8152 52.6319 22.7613C52.4096 22.4009 52.1906 22.0404 51.6549 21.9528C51.6482 22.2425 51.6179 22.5963 51.7796 22.7512C51.948 22.9129 52.2984 22.8793 52.5679 22.9332L52.5646 22.9298Z" fill="white"/>
</svg>
